<?xml version="1.0" encoding="utf-8"?>
<!-- Generator: Adobe Illustrator 24.3.0, SVG Export Plug-In . SVG Version: 6.00 Build 0)  -->
<svg version="1.1" id="Слой_1" xmlns="http://www.w3.org/2000/svg" xmlns:xlink="http://www.w3.org/1999/xlink" x="0px" y="0px"
	 viewBox="0 0 106 106" style="enable-background:new 0 0 106 106;" xml:space="preserve">
<style type="text/css">
	.st0{fill:#CF1A1B;}
	.st1{fill:#FFFFFF;}
	.st2{fill:#FFFFFF;stroke:#CF1A1B;stroke-miterlimit:10;}
</style>
<rect class="st0" width="106" height="106"/>
<path class="st1" d="M51.79,64.06c0.43,0.03,1.03,0.05,1.74,0c3.61-0.24,6.18-1.9,7.13-2.54c3.22-2.14,4.78-4.89,5.87-6.82
	c0.95-1.68,1.54-3.19,1.9-4.28c0.66-0.73,1.53-1.79,2.38-3.17c1.97-3.2,2.54-6,2.7-6.82c0.31-1.7,1.06-5.74-0.79-6.98
	c-0.29-0.2-0.59-0.28-0.79-0.32c0.01-1.19-0.01-2.88-0.16-4.91c-0.37-5.09-0.55-7.63-1.9-10.31c-1.94-3.85-5.19-5.8-6.66-6.66
	c-4.52-2.64-8.92-2.65-10.78-2.54l0.46,0.01c-1.86-0.11-6.26-0.11-10.78,2.54c-1.46,0.86-4.72,2.81-6.66,6.66
	c-1.35,2.68-1.53,5.22-1.9,10.31c-0.15,2.03-0.17,3.73-0.16,4.91c-0.2,0.04-0.5,0.12-0.79,0.32c-1.85,1.24-1.11,5.28-0.79,6.98
	c0.15,0.82,0.73,3.62,2.7,6.82c0.85,1.38,1.72,2.44,2.38,3.17c0.36,1.09,0.95,2.6,1.9,4.28c1.09,1.93,2.65,4.68,5.87,6.82
	c0.95,0.63,3.52,2.3,7.13,2.54c0.71,0.05,1.32,0.03,1.74,0"/>
<g>
	<path class="st1" d="M53,67.77c-1.71-0.07-5.6-0.25-8.69-1.74c-4.06-1.96-6.77-5.46-7.82-6.95c-1.41,0.57-2.44,0.74-5.17,1.81
		c-6.47,2.55-7.64,2.9-9.67,4.12c-1.42,0.85-4.13,2.51-6.66,5.55c-3.07,3.69-4.18,7.36-5.07,10.31c-0.66,2.2-1.94,5.42-2.1,9.49
		C9,91,11.25,91.9,13.41,92.76c5.61,2.25,10.56,3.01,18.87,3.65c5.75,0.44,12.87,0.8,21.09,0.79"/>
	<path class="st1" d="M53,67.77c1.71-0.07,4.74-0.25,7.82-1.74c4.06-1.96,6.77-5.46,7.82-6.95c1.41,0.57,2.65,0.77,5.37,1.84
		c6.47,2.55,7.64,2.9,9.67,4.12c1.42,0.85,4.13,2.51,6.66,5.55c3.07,3.69,4.18,7.36,5.07,10.31c0.66,2.2,1.74,5.39,1.9,9.46
		c-1.18,0.64-3.22,1.57-5.38,2.43c-5.61,2.25-10.56,3.01-18.87,3.65c-5.75,0.44-12.87,0.8-21.09,0.79"/>
</g>
<rect x="7.82" y="90.36" class="st1" width="89.49" height="6.95"/>
<rect y="0" class="st0" width="106" height="106"/>
<rect x="14.5" y="44.57" class="st1" width="17.1" height="48.78"/>
<path class="st1" d="M36.37,47.33c3.6-6.12,7.21-12.24,10.81-18.35c0.23-1.56,0.41-3.24,0.5-5.03c0.21-3.98-0.06-7.55-0.5-10.56
	c1.15-0.42,3.18-0.98,5.53-0.5c4.2,0.84,6.46,4.35,7.54,6.03c4.87,7.56,1.58,17.02,1.01,18.61c7.54,0,15.09,0,22.63,0
	c2.89,0.33,5.28,2.34,6.03,5.03c0.85,3.06-0.59,6.43-3.52,8.05c0.67,0.28,2.37,1.11,3.52,3.02c0.24,0.41,1.94,3.34,0.5,6.54
	c-1.55,3.46-5.32,4-5.53,4.02c0.47,0.31,2.09,1.47,2.51,3.52c0.56,2.71-1.38,4.84-2.01,5.53c-1.63,1.79-3.65,2.33-4.53,2.51
	c0,0.01,0.86,2.53,1.01,3.02c0.47,1.6-0.28,5.96-3.52,8.05c-0.98,0.63-1.92,0.89-2.51,1.01c-13.07,0-26.15,0-39.22,0
	C36.54,74.32,36.46,60.83,36.37,47.33z"/>
<rect x="0" y="0" class="st0" width="106" height="106"/>
<rect x="25.5" y="10.09" class="st2" width="54" height="86.41"/>
<circle class="st0" cx="75.2" cy="13.93" r="1.89"/>
<path class="st0" d="M71.99,89.5H33.01c-0.73,0-1.32-0.6-1.32-1.32v-70.5c0-0.73,0.6-1.32,1.32-1.32h38.97
	c0.73,0,1.32,0.6,1.32,1.32v70.5C73.31,88.9,72.71,89.5,71.99,89.5z"/>
<rect x="36.74" y="22.65" class="st1" width="32.79" height="32.79"/>
<path class="st0" d="M52.6,41.88c0.13,0.01,0.32,0.01,0.53,0c1.11-0.07,1.89-0.58,2.19-0.78c0.99-0.66,1.46-1.5,1.8-2.09
	c0.29-0.51,0.47-0.98,0.58-1.31c0.2-0.22,0.47-0.55,0.73-0.97c0.6-0.98,0.78-1.84,0.83-2.09c0.1-0.52,0.33-1.76-0.24-2.14
	c-0.09-0.06-0.18-0.09-0.24-0.1c0-0.36,0-0.88-0.05-1.51c-0.11-1.56-0.17-2.34-0.58-3.16c-0.59-1.18-1.59-1.78-2.04-2.04
	c-1.38-0.81-2.73-0.81-3.3-0.78l0.14,0c-0.57-0.03-1.92-0.03-3.3,0.78c-0.45,0.26-1.45,0.86-2.04,2.04
	c-0.41,0.82-0.47,1.6-0.58,3.16c-0.05,0.62-0.05,1.14-0.05,1.51c-0.06,0.01-0.15,0.04-0.24,0.1c-0.57,0.38-0.34,1.62-0.24,2.14
	c0.05,0.25,0.22,1.11,0.83,2.09c0.26,0.42,0.53,0.75,0.73,0.97c0.11,0.33,0.29,0.8,0.58,1.31c0.33,0.59,0.81,1.43,1.8,2.09
	C50.7,41.3,51.49,41.81,52.6,41.88c0.21,0.02,0.4,0.01,0.53,0"/>
<g>
	<path class="st0" d="M52.97,43.02c-0.52-0.02-1.72-0.08-2.66-0.53c-1.24-0.6-2.07-1.67-2.4-2.13c-0.43,0.18-0.75,0.23-1.58,0.56
		c-1.98,0.78-2.34,0.89-2.96,1.26c-0.43,0.26-1.26,0.77-2.04,1.7c-0.94,1.13-1.28,2.26-1.55,3.16c-0.2,0.67-0.59,1.66-0.64,2.91
		c0.36,0.2,1.05,0.47,1.71,0.74c1.72,0.69,3.24,0.92,5.78,1.12c1.76,0.13,3.94,0.24,6.46,0.24"/>
	<path class="st0" d="M52.97,43.02c0.52-0.02,1.45-0.08,2.4-0.53c1.24-0.6,2.07-1.67,2.4-2.13c0.43,0.18,0.81,0.24,1.65,0.56
		c1.98,0.78,2.34,0.89,2.96,1.26c0.43,0.26,1.26,0.77,2.04,1.7c0.94,1.13,1.28,2.26,1.55,3.16c0.2,0.67,0.53,1.65,0.58,2.9
		c-0.36,0.2-0.99,0.48-1.65,0.75c-1.72,0.69-3.24,0.92-5.78,1.12c-1.76,0.13-3.94,0.24-6.46,0.24"/>
</g>
<rect x="39.13" y="49.94" class="st0" width="27.41" height="2.13"/>
<rect x="39.26" y="59.23" class="st1" width="27.75" height="1.26"/>
<rect x="41.78" y="64.27" class="st1" width="22.7" height="1.26"/>
</svg>
