<?xml version="1.0" encoding="utf-8"?>
<!-- Generator: Adobe Illustrator 24.3.0, SVG Export Plug-In . SVG Version: 6.00 Build 0)  -->
<svg version="1.1" id="Слой_1" xmlns="http://www.w3.org/2000/svg" xmlns:xlink="http://www.w3.org/1999/xlink" x="0px" y="0px"
	 viewBox="0 0 57.62 53.63" style="enable-background:new 0 0 57.62 53.63;" xml:space="preserve">
<style type="text/css">
	.st0{display:none;fill:#FFFFFF;}
	.st1{display:none;}
	.st2{fill:#FFFFFF;}
	.st3{fill:#CF1A1B;}
</style>
<path class="st0" d="M27.7,15.28c-0.02-0.04-0.05-0.09-0.09-0.14c-0.13-0.17-0.25-0.27-0.33-0.33c-0.33-0.26-0.67-0.37-0.71-0.38
	c-0.25-0.08-0.44-0.09-0.8-0.09c-0.39-0.01-0.69,0.02-0.99,0.05c-0.22,0.02-0.44,0.04-0.71,0.09c-0.6,0.11-1.05,0.29-1.28,0.38
	c-0.31,0.13-0.71,0.29-1.14,0.61c-0.73,0.55-1.1,1.21-1.23,1.47c-0.41,0.8-0.45,1.53-0.47,1.99c-0.03,0.51,0,1.09,0,1.09
	c0.01,0.19,0.02,0.27,0.05,0.71c0.03,0.41,0.04,0.69,0.05,0.8c0.05,0.8,0.15,1.63,0.19,1.89c0.05,0.39,0.14,1.09,0.33,1.99
	c0.16,0.77,0.3,1.46,0.61,2.36c0.33,0.96,0.69,1.68,0.9,2.08c0.36,0.68,0.66,1.12,1.18,1.89c0.4,0.59,0.96,1.41,1.8,2.41
	c0.57,0.69,1.09,1.3,1.89,2.03c0.48,0.43,0.97,0.87,1.7,1.32c0.68,0.42,1.38,0.85,2.41,1.04c0.36,0.07,1.28,0.23,2.32-0.05
	c0.26-0.07,0.53-0.17,0.99-0.33c0.3-0.11,0.79-0.28,1.32-0.52c0.98-0.43,1.46-0.65,1.75-0.99c0.09-0.11,0.69-0.85,0.52-1.75
	c-0.04-0.22-0.12-0.4-0.19-0.52c-1.2-0.93-2.4-1.86-3.59-2.79c-0.08-0.07-0.24-0.19-0.47-0.24c-0.35-0.07-0.62,0.05-0.71,0.09
	c-0.58,0.39-1.17,0.79-1.75,1.18c-0.12,0.07-0.3,0.16-0.52,0.24c-0.15,0.05-0.34,0.12-0.57,0.14c-0.08,0.01-0.43,0.04-0.8-0.09
	c-0.65-0.23-0.96-0.8-1.04-0.95c-1.34-2.51-2.68-5.01-4.02-7.52c-0.06-0.16-0.14-0.38-0.19-0.66c-0.04-0.23-0.09-0.55,0-0.95
	c0.14-0.62,0.55-0.99,0.66-1.09c0.25-0.22,0.5-0.33,0.61-0.38c0.38-0.15,0.71-0.15,0.9-0.14c0.18-0.02,0.43-0.08,0.71-0.24
	c0.46-0.26,0.7-0.62,0.8-0.8C27.76,18.56,27.73,16.92,27.7,15.28z"/>
<g class="st1">
	<path class="st2" d="M26.96,28.64l-9.55-9.55c-0.28,0.46-0.45,0.99-0.45,1.56v11.7c0,1.65,1.35,3.01,3.01,3.01h17.98
		c1.65,0,3.01-1.35,3.01-3.01v-11.7c0-0.72-0.27-1.37-0.69-1.89l-9.88,9.88C29.44,29.58,27.9,29.58,26.96,28.64z"/>
	<path class="st2" d="M37.95,17.64H19.97c-1.08,0-2.03,0.59-2.56,1.45l9.55,9.55c0.94,0.94,2.48,0.94,3.42,0l9.88-9.88
		C39.72,18.08,38.89,17.64,37.95,17.64z"/>
</g>
<g>
	<polygon class="st3" points="0,25.16 28.8,0.05 28.82,6.05 3,28.41 	"/>
	<polygon class="st3" points="28.8,9.84 8.64,27.35 8.56,53.63 22.37,53.63 22.37,41.55 28.8,41.55 	"/>
	<polygon class="st3" points="8.56,3.75 15.85,3.75 15.85,7.97 8.55,14.42 	"/>
	<polygon class="st3" points="57.62,25.19 28.81,0.09 28.79,6.08 54.61,28.45 	"/>
	<polygon class="st3" points="28.8,9.84 49.08,27.38 49.08,53.63 35.17,53.63 35.17,41.55 22.37,41.55 28.8,41.55 	"/>
</g>
</svg>
