<?xml version="1.0" encoding="utf-8"?>
<!-- Generator: Adobe Illustrator 24.3.0, SVG Export Plug-In . SVG Version: 6.00 Build 0)  -->
<svg version="1.1" id="Слой_1" xmlns="http://www.w3.org/2000/svg" xmlns:xlink="http://www.w3.org/1999/xlink" x="0px" y="0px"
	 viewBox="0 0 1322 482" style="enable-background:new 0 0 1322 482;" xml:space="preserve">
<style type="text/css">
	.st0{fill:#FFFFFF;}
	.st1{fill:#CE1717;}
	.st2{fill:none;stroke:#CE1717;stroke-width:2;stroke-miterlimit:10;}
	.st3{fill:#EFEFEF;}
</style>
<rect x="-0.21" y="-0.02" class="st0" width="1322.88" height="480.96"/>
<rect x="0.24" y="301.82" class="st1" width="1321.98" height="91.59"/>
<g>
	<g>
		<path class="st1" d="M120.52,57.22h-2.25v-4.1h-12.01V37.95h2.52v12.96h7.14V37.95h2.53v12.96h2.08V57.22z"/>
		<path class="st1" d="M131.62,53.11h-8.51V37.95h8.17v2.14h-5.66v4.29h5.21v2.12h-5.21v4.48h6V53.11z"/>
		<path class="st1" d="M146.5,53.11h-2.53v-6.58h-7.14v6.58h-2.52V37.95h2.52v6.38h7.14v-6.38h2.53V53.11z"/>
		<path class="st1" d="M162.7,53.11h-2.76l-1.36-3.86h-5.96l-1.31,3.86h-2.75l5.68-15.16h2.83L162.7,53.11z M157.91,47.2l-2.1-6.05
			c-0.06-0.2-0.13-0.51-0.2-0.95h-0.04c-0.06,0.4-0.13,0.72-0.21,0.95l-2.08,6.05H157.91z"/>
		<path class="st1" d="M175.36,37.61v15.5h-2.45v-12.5c-0.44,0.32-0.92,0.59-1.43,0.81c-0.51,0.22-1.09,0.42-1.75,0.59v-2.09
			c0.41-0.13,0.8-0.27,1.18-0.42c0.38-0.15,0.76-0.31,1.13-0.5s0.74-0.39,1.12-0.61c0.38-0.23,0.77-0.48,1.17-0.77H175.36z"/>
	</g>
</g>
<g>
	<g>
		<path class="st1" d="M382.03,57.43h-2.25v-4.1h-12.01V38.16h2.52v12.96h7.14V38.16h2.53v12.96h2.08V57.43z"/>
		<path class="st1" d="M393.12,53.33h-8.51V38.16h8.17v2.14h-5.66v4.29h5.21v2.12h-5.21v4.48h6V53.33z"/>
		<path class="st1" d="M408,53.33h-2.53v-6.58h-7.14v6.58h-2.52V38.16h2.52v6.38h7.14v-6.38H408V53.33z"/>
		<path class="st1" d="M424.2,53.33h-2.76l-1.36-3.86h-5.96l-1.31,3.86h-2.75l5.68-15.16h2.83L424.2,53.33z M419.41,47.42l-2.1-6.05
			c-0.06-0.2-0.13-0.51-0.2-0.95h-0.04c-0.06,0.4-0.13,0.72-0.21,0.95l-2.08,6.05H419.41z"/>
		<path class="st1" d="M440.92,53.33h-9.52v-1.17c0-0.48,0.07-0.93,0.2-1.35c0.13-0.42,0.31-0.81,0.54-1.18s0.49-0.72,0.79-1.05
			c0.3-0.33,0.63-0.65,0.97-0.95s0.7-0.6,1.06-0.89c0.36-0.29,0.71-0.57,1.06-0.86c0.32-0.28,0.62-0.54,0.89-0.81
			c0.27-0.26,0.5-0.54,0.69-0.82c0.19-0.28,0.34-0.58,0.44-0.89c0.11-0.31,0.16-0.65,0.16-1.02c0-0.4-0.06-0.75-0.19-1.05
			c-0.12-0.3-0.3-0.55-0.52-0.75c-0.22-0.2-0.48-0.35-0.79-0.45c-0.3-0.1-0.63-0.15-0.99-0.15c-0.62,0-1.25,0.14-1.89,0.43
			c-0.64,0.29-1.26,0.72-1.85,1.3v-2.36c0.31-0.23,0.62-0.44,0.94-0.61c0.32-0.17,0.65-0.32,0.98-0.43s0.69-0.2,1.07-0.26
			c0.37-0.06,0.77-0.08,1.19-0.08c0.68,0,1.3,0.09,1.86,0.27c0.56,0.18,1.03,0.44,1.43,0.79c0.4,0.35,0.7,0.79,0.92,1.31
			c0.21,0.52,0.32,1.12,0.32,1.8c0,0.61-0.08,1.17-0.23,1.65c-0.15,0.49-0.37,0.95-0.65,1.37c-0.28,0.42-0.61,0.83-1.01,1.21
			s-0.84,0.77-1.32,1.17c-0.41,0.33-0.82,0.65-1.22,0.97c-0.41,0.31-0.77,0.62-1.09,0.92s-0.59,0.6-0.79,0.9
			c-0.2,0.3-0.3,0.6-0.3,0.9v0.05h6.84V53.33z"/>
	</g>
</g>
<g>
	<g>
		<path class="st1" d="M604.71,57.38h-2.25v-4.1h-12.01V38.11h2.52v12.96h7.14V38.11h2.53v12.96h2.08V57.38z"/>
		<path class="st1" d="M615.8,53.27h-8.51V38.11h8.17v2.14h-5.66v4.29h5.21v2.12h-5.21v4.48h6V53.27z"/>
		<path class="st1" d="M630.68,53.27h-2.53V46.7h-7.14v6.58h-2.52V38.11h2.52v6.38h7.14v-6.38h2.53V53.27z"/>
		<path class="st1" d="M646.88,53.27h-2.76l-1.36-3.86h-5.96l-1.31,3.86h-2.75l5.68-15.16h2.83L646.88,53.27z M642.09,47.36
			l-2.1-6.05c-0.06-0.2-0.13-0.51-0.2-0.95h-0.04c-0.06,0.4-0.13,0.72-0.21,0.95l-2.08,6.05H642.09z"/>
		<path class="st1" d="M654.34,52.71v-2.31c0.99,0.78,2.1,1.17,3.34,1.17c1.01,0,1.81-0.23,2.42-0.69c0.6-0.46,0.9-1.08,0.9-1.86
			c0-1.72-1.31-2.58-3.94-2.58h-1.17v-1.97h1.12c2.33,0,3.5-0.81,3.5-2.43c0-1.49-0.91-2.24-2.73-2.24c-1.02,0-1.97,0.36-2.87,1.09
			v-2.18c1.03-0.58,2.25-0.87,3.65-0.87c1.35,0,2.42,0.34,3.24,1.02c0.81,0.68,1.22,1.54,1.22,2.6c0,2-1.02,3.28-3.05,3.85v0.04
			c1.09,0.11,1.96,0.49,2.59,1.15c0.63,0.66,0.95,1.48,0.95,2.47c0,1.36-0.51,2.46-1.53,3.29c-1.02,0.83-2.37,1.25-4.04,1.25
			C656.44,53.53,655.24,53.26,654.34,52.71z"/>
	</g>
</g>
<g>
	<g>
		<path class="st1" d="M768.6,57.48h-2.25v-4.1h-12.01V38.22h2.52v12.96h7.14V38.22h2.53v12.96h2.08V57.48z"/>
		<path class="st1" d="M779.7,53.38h-8.51V38.22h8.17v2.14h-5.66v4.29h5.21v2.12h-5.21v4.48h6V53.38z"/>
		<path class="st1" d="M794.58,53.38h-2.53V46.8h-7.14v6.58h-2.52V38.22h2.52v6.38h7.14v-6.38h2.53V53.38z"/>
		<path class="st1" d="M810.78,53.38h-2.76l-1.36-3.86h-5.96l-1.31,3.86h-2.75l5.68-15.16h2.83L810.78,53.38z M805.99,47.47
			l-2.1-6.05c-0.06-0.2-0.13-0.51-0.2-0.95h-0.04c-0.06,0.4-0.13,0.72-0.21,0.95l-2.08,6.05H805.99z"/>
		<path class="st1" d="M826.73,38.22v9.79h2.25v2.04h-2.25v3.33h-2.38v-3.33h-6.86v-2.06c0.62-0.7,1.26-1.45,1.91-2.27
			c0.65-0.81,1.28-1.65,1.88-2.5s1.16-1.7,1.68-2.55c0.51-0.85,0.95-1.67,1.3-2.45H826.73z M824.35,48.01v-6.37
			c-0.77,1.38-1.53,2.59-2.28,3.62s-1.45,1.95-2.11,2.75H824.35z"/>
	</g>
</g>
<g>
	<g>
		<path class="st1" d="M1066.77,57.43h-2.25v-4.1h-12.01V38.16h2.52v12.96h7.14V38.16h2.53v12.96h2.08V57.43z"/>
		<path class="st1" d="M1077.87,53.33h-8.51V38.16h8.17v2.14h-5.66v4.29h5.21v2.12h-5.21v4.48h6V53.33z"/>
		<path class="st1" d="M1092.74,53.33h-2.53v-6.58h-7.14v6.58h-2.52V38.16h2.52v6.38h7.14v-6.38h2.53V53.33z"/>
		<path class="st1" d="M1108.95,53.33h-2.76l-1.36-3.86h-5.96l-1.31,3.86h-2.75l5.68-15.16h2.83L1108.95,53.33z M1104.15,47.42
			l-2.1-6.05c-0.06-0.2-0.13-0.51-0.2-0.95h-0.04c-0.06,0.4-0.13,0.72-0.21,0.95l-2.08,6.05H1104.15z"/>
		<path class="st1" d="M1116.75,52.98v-2.36c0.99,0.67,2,1,3.02,1c1.03,0,1.86-0.26,2.49-0.79c0.63-0.53,0.94-1.22,0.94-2.1
			c0-0.86-0.32-1.53-0.96-2.01c-0.64-0.48-1.55-0.72-2.74-0.72c-0.41,0-1.24,0.04-2.49,0.13l0.54-7.97h7.47v2.09h-5.42l-0.25,3.8
			c0.49-0.03,0.93-0.04,1.32-0.04c1.61,0,2.85,0.41,3.73,1.24s1.32,1.95,1.32,3.38c0,1.5-0.5,2.71-1.51,3.61
			c-1,0.91-2.38,1.36-4.14,1.36C1118.58,53.6,1117.47,53.39,1116.75,52.98z"/>
	</g>
</g>
<g>
	<g>
		<path class="st1" d="M70.37,183.54h-2.25v-4.09h-10.3v4.09h-2.24v-6.23h1.28c0.95-1.78,1.76-3.87,2.42-6.25
			c0.66-2.38,1.04-4.64,1.12-6.78h7.88v13.03h2.09V183.54z M65.75,177.31v-10.86h-3.28c-0.1,1.58-0.44,3.43-1.03,5.55
			c-0.59,2.12-1.24,3.89-1.96,5.31H65.75z"/>
		<path class="st1" d="M79.24,179.7c-2.19,0-3.94-0.71-5.25-2.13c-1.31-1.42-1.97-3.26-1.97-5.53c0-2.44,0.67-4.38,2.01-5.84
			c1.34-1.45,3.16-2.18,5.46-2.18c2.13,0,3.84,0.71,5.14,2.12s1.95,3.25,1.95,5.53c0,2.47-0.67,4.43-2,5.87
			C83.25,178.98,81.47,179.7,79.24,179.7z M79.35,166.24c-1.39,0-2.52,0.52-3.39,1.55c-0.87,1.04-1.31,2.4-1.31,4.09
			c0,1.68,0.42,3.04,1.27,4.07c0.85,1.03,1.95,1.54,3.32,1.54c1.45,0,2.6-0.49,3.44-1.47c0.84-0.98,1.26-2.35,1.26-4.11
			c0-1.81-0.41-3.21-1.22-4.2C81.91,166.73,80.79,166.24,79.35,166.24z"/>
		<path class="st1" d="M103.99,179.44h-9.52v-1.17c0-0.48,0.07-0.93,0.2-1.35c0.13-0.42,0.31-0.81,0.54-1.18s0.49-0.72,0.79-1.05
			c0.3-0.33,0.63-0.65,0.97-0.95s0.7-0.6,1.06-0.89c0.36-0.29,0.71-0.57,1.06-0.86c0.32-0.28,0.62-0.54,0.89-0.81
			c0.27-0.26,0.5-0.54,0.69-0.82c0.19-0.28,0.34-0.58,0.44-0.89c0.11-0.31,0.16-0.65,0.16-1.02c0-0.4-0.06-0.75-0.19-1.05
			c-0.12-0.3-0.3-0.55-0.52-0.75c-0.22-0.2-0.48-0.35-0.79-0.45c-0.3-0.1-0.63-0.15-0.99-0.15c-0.62,0-1.25,0.14-1.89,0.43
			c-0.64,0.29-1.26,0.72-1.85,1.3v-2.36c0.31-0.23,0.62-0.44,0.94-0.61c0.32-0.17,0.65-0.32,0.98-0.43s0.69-0.2,1.07-0.26
			c0.37-0.06,0.77-0.08,1.19-0.08c0.68,0,1.3,0.09,1.86,0.27c0.56,0.18,1.03,0.44,1.43,0.79c0.4,0.35,0.7,0.79,0.92,1.31
			c0.21,0.52,0.32,1.12,0.32,1.8c0,0.61-0.08,1.17-0.23,1.65c-0.15,0.49-0.37,0.95-0.65,1.37c-0.28,0.42-0.61,0.83-1.01,1.21
			s-0.84,0.77-1.32,1.17c-0.41,0.33-0.82,0.65-1.22,0.97c-0.41,0.31-0.77,0.62-1.09,0.92s-0.59,0.6-0.79,0.9
			c-0.2,0.3-0.3,0.6-0.3,0.9v0.05h6.84V179.44z"/>
		<path class="st1" d="M111.31,179.7c-1.58,0-2.81-0.65-3.7-1.94s-1.33-3.15-1.33-5.59c0-2.68,0.46-4.71,1.39-6.08
			c0.92-1.38,2.26-2.06,4-2.06c3.33,0,5,2.59,5,7.77c0,2.57-0.47,4.52-1.41,5.87C114.32,179.02,113,179.7,111.31,179.7z
			 M111.55,165.98c-1.84,0-2.76,2.03-2.76,6.08c0,3.79,0.9,5.69,2.71,5.69c1.78,0,2.67-1.93,2.67-5.78
			C114.17,167.98,113.29,165.98,111.55,165.98z"/>
		<path class="st1" d="M127.82,173.95v5.5h-2.51v-15.16h4.6c1.74,0,3.09,0.41,4.05,1.22c0.96,0.81,1.44,1.95,1.44,3.43
			s-0.5,2.68-1.5,3.62c-1,0.94-2.35,1.41-4.06,1.41H127.82z M127.82,166.35v5.54h1.63c1.08,0,1.9-0.25,2.46-0.75
			c0.56-0.5,0.85-1.21,0.85-2.12c0-1.78-1.04-2.68-3.11-2.68H127.82z"/>
		<path class="st1" d="M150.43,179.44h-2.76l-1.36-3.86h-5.96l-1.31,3.86h-2.75l5.68-15.16h2.83L150.43,179.44z M145.64,173.53
			l-2.1-6.05c-0.06-0.2-0.13-0.51-0.2-0.95h-0.04c-0.06,0.4-0.13,0.72-0.21,0.95l-2.08,6.05H145.64z"/>
		<path class="st1" d="M152.51,179.44v-15.16h8.85v2.15h-6.33v4.15h2.9c1.55,0,2.76,0.37,3.62,1.1s1.3,1.77,1.3,3.12
			c0,1.44-0.46,2.57-1.38,3.41c-0.92,0.83-2.17,1.25-3.76,1.25H152.51z M155.03,172.57v4.87h2.27c0.92,0,1.64-0.22,2.14-0.66
			c0.5-0.44,0.75-1.05,0.75-1.83c0-1.59-0.95-2.38-2.84-2.38H155.03z"/>
		<path class="st1" d="M171.83,179.7c-2.19,0-3.94-0.71-5.25-2.13c-1.31-1.42-1.97-3.26-1.97-5.53c0-2.44,0.67-4.38,2.01-5.84
			c1.34-1.45,3.16-2.18,5.46-2.18c2.13,0,3.84,0.71,5.14,2.12s1.95,3.25,1.95,5.53c0,2.47-0.67,4.43-2,5.87
			C175.84,178.98,174.06,179.7,171.83,179.7z M171.95,166.24c-1.39,0-2.52,0.52-3.39,1.55c-0.87,1.04-1.31,2.4-1.31,4.09
			c0,1.68,0.42,3.04,1.27,4.07c0.85,1.03,1.95,1.54,3.32,1.54c1.45,0,2.6-0.49,3.44-1.47c0.84-0.98,1.26-2.35,1.26-4.11
			c0-1.81-0.41-3.21-1.22-4.2C174.5,166.73,173.38,166.24,171.95,166.24z"/>
		<path class="st1" d="M193.04,179.44h-2.52v-6.46c-1.59,0.82-3.06,1.23-4.42,1.23c-1.4,0-2.49-0.35-3.25-1.06
			c-0.77-0.71-1.15-1.7-1.15-2.99v-5.88h2.51v5.42c0,1.57,0.8,2.36,2.41,2.36c1.14,0,2.44-0.37,3.9-1.1v-6.68h2.52V179.44z"/>
		<path class="st1" d="M209.76,179.44h-2.42v-10.1c0-0.91,0.04-1.55,0.11-1.92h-0.06c-0.12,0.32-0.27,0.61-0.44,0.88l-7.28,11.15
			h-2.76v-15.16h2.43v9.64c0,1.11-0.03,1.83-0.08,2.17h0.04c0.14-0.28,0.32-0.59,0.55-0.93l7.02-10.88h2.9V179.44z"/>
		<path class="st1" d="M224.86,179.44h-3.01l-3.11-5.56c-0.09-0.17-0.19-0.41-0.31-0.72h-0.04c-0.06,0.16-0.17,0.39-0.32,0.72
			l-3.2,5.56h-3.04l4.97-7.62l-4.57-7.54h3.08l2.74,5.12c0.18,0.34,0.33,0.68,0.48,1.01h0.03c0.2-0.44,0.38-0.8,0.53-1.06l2.84-5.08
			h2.83l-4.67,7.52L224.86,179.44z"/>
		<path class="st1" d="M130.03,205.43h-2.5v-9.81c0-0.8,0.05-1.79,0.15-2.95h-0.04c-0.15,0.66-0.29,1.14-0.41,1.43l-4.53,11.34
			h-1.73l-4.54-11.25c-0.13-0.33-0.26-0.84-0.4-1.51h-0.04c0.06,0.61,0.08,1.6,0.08,2.97v9.79h-2.33v-15.16h3.54l3.99,10.1
			c0.3,0.78,0.5,1.35,0.59,1.73h0.05c0.26-0.8,0.47-1.39,0.63-1.78l4.06-10.06h3.42V205.43z"/>
		<path class="st1" d="M142.27,205.43h-8.51v-15.16h8.17v2.14h-5.66v4.29h5.21v2.12h-5.21v4.48h6V205.43z"/>
		<path class="st1" d="M155.54,204.8c-1.14,0.59-2.56,0.89-4.26,0.89c-2.2,0-3.96-0.69-5.29-2.08c-1.33-1.39-1.99-3.21-1.99-5.47
			c0-2.42,0.75-4.38,2.24-5.88c1.49-1.5,3.38-2.24,5.65-2.24c1.47,0,2.68,0.21,3.65,0.62v2.5c-1.02-0.61-2.15-0.91-3.38-0.91
			c-1.64,0-2.97,0.53-3.99,1.58c-1.02,1.05-1.53,2.45-1.53,4.21c0,1.67,0.48,3,1.43,3.99s2.2,1.49,3.75,1.49
			c1.43,0,2.67-0.34,3.72-1.02V204.8z"/>
		<path class="st1" d="M168.15,192.4h-4.36v13.03h-2.52V192.4h-4.35v-2.14h11.22V192.4z"/>
	</g>
</g>
<g>
	<g>
		<path class="st1" d="M381.82,181.41v15.5h-2.45v-12.5c-0.44,0.32-0.92,0.59-1.43,0.81c-0.51,0.22-1.09,0.42-1.75,0.59v-2.09
			c0.41-0.13,0.8-0.27,1.18-0.42c0.38-0.15,0.76-0.31,1.13-0.5s0.74-0.39,1.12-0.61c0.38-0.23,0.77-0.48,1.17-0.77H381.82z"/>
		<path class="st1" d="M390.54,181.41v15.5h-2.45v-12.5c-0.44,0.32-0.92,0.59-1.43,0.81c-0.51,0.22-1.09,0.42-1.75,0.59v-2.09
			c0.41-0.13,0.8-0.27,1.18-0.42c0.38-0.15,0.76-0.31,1.13-0.5s0.74-0.39,1.12-0.61c0.38-0.23,0.77-0.48,1.17-0.77H390.54z"/>
		<path class="st1" d="M395.36,197.15c-0.42,0-0.78-0.14-1.08-0.42c-0.3-0.28-0.44-0.61-0.44-1c0-0.39,0.15-0.73,0.44-1.01
			c0.3-0.28,0.66-0.42,1.08-0.42c0.43,0,0.79,0.14,1.09,0.42c0.3,0.28,0.45,0.62,0.45,1.01c0,0.39-0.15,0.72-0.45,1
			C396.15,197.01,395.79,197.15,395.36,197.15z"/>
		<path class="st1" d="M400.58,197.15c-0.42,0-0.78-0.14-1.08-0.42c-0.3-0.28-0.44-0.61-0.44-1c0-0.39,0.15-0.73,0.44-1.01
			c0.3-0.28,0.66-0.42,1.08-0.42c0.43,0,0.79,0.14,1.09,0.42c0.3,0.28,0.45,0.62,0.45,1.01c0,0.39-0.15,0.72-0.45,1
			C401.38,197.01,401.01,197.15,400.58,197.15z"/>
		<path class="st1" d="M405.81,197.15c-0.42,0-0.78-0.14-1.08-0.42c-0.3-0.28-0.44-0.61-0.44-1c0-0.39,0.15-0.73,0.44-1.01
			c0.3-0.28,0.66-0.42,1.08-0.42c0.43,0,0.79,0.14,1.09,0.42c0.3,0.28,0.45,0.62,0.45,1.01c0,0.39-0.15,0.72-0.45,1
			C406.6,197.01,406.24,197.15,405.81,197.15z"/>
		<path class="st1" d="M418.97,196.92h-9.52v-1.17c0-0.48,0.07-0.93,0.2-1.35c0.13-0.42,0.31-0.81,0.54-1.18s0.49-0.72,0.79-1.05
			c0.3-0.33,0.63-0.65,0.97-0.95s0.7-0.6,1.06-0.89c0.36-0.29,0.71-0.57,1.06-0.86c0.32-0.28,0.62-0.54,0.89-0.81
			c0.27-0.26,0.5-0.54,0.69-0.82c0.19-0.28,0.34-0.58,0.44-0.89c0.11-0.31,0.16-0.65,0.16-1.02c0-0.4-0.06-0.75-0.19-1.05
			c-0.12-0.3-0.3-0.55-0.52-0.75c-0.22-0.2-0.48-0.35-0.79-0.45c-0.3-0.1-0.63-0.15-0.99-0.15c-0.62,0-1.25,0.14-1.89,0.43
			c-0.64,0.29-1.26,0.72-1.85,1.3v-2.36c0.31-0.23,0.62-0.44,0.94-0.61c0.32-0.17,0.65-0.32,0.98-0.43s0.69-0.2,1.07-0.26
			c0.37-0.06,0.77-0.08,1.19-0.08c0.68,0,1.3,0.09,1.86,0.27c0.56,0.18,1.03,0.44,1.43,0.79c0.4,0.35,0.7,0.79,0.92,1.31
			c0.21,0.52,0.32,1.12,0.32,1.8c0,0.61-0.08,1.17-0.23,1.65c-0.15,0.49-0.37,0.95-0.65,1.37c-0.28,0.42-0.61,0.83-1.01,1.21
			s-0.84,0.77-1.32,1.17c-0.41,0.33-0.82,0.65-1.22,0.97c-0.41,0.31-0.77,0.62-1.09,0.92s-0.59,0.6-0.79,0.9
			c-0.2,0.3-0.3,0.6-0.3,0.9v0.05h6.84V196.92z"/>
		<path class="st1" d="M426.29,197.17c-1.58,0-2.81-0.65-3.7-1.94s-1.33-3.15-1.33-5.59c0-2.68,0.46-4.71,1.39-6.08
			c0.92-1.38,2.26-2.06,4-2.06c3.33,0,5,2.59,5,7.77c0,2.57-0.47,4.52-1.41,5.87C429.3,196.49,427.98,197.17,426.29,197.17z
			 M426.53,183.45c-1.84,0-2.76,2.03-2.76,6.08c0,3.79,0.9,5.69,2.71,5.69c1.78,0,2.67-1.93,2.67-5.78
			C429.14,185.45,428.27,183.45,426.53,183.45z"/>
	</g>
</g>
<g>
	<g>
		<path class="st1" d="M607.73,196.44h-9.52v-1.17c0-0.48,0.07-0.93,0.2-1.35c0.13-0.42,0.31-0.81,0.54-1.18s0.49-0.72,0.79-1.05
			c0.3-0.33,0.63-0.65,0.97-0.95s0.7-0.6,1.06-0.89c0.36-0.29,0.71-0.57,1.06-0.86c0.32-0.28,0.62-0.54,0.89-0.81
			c0.27-0.26,0.5-0.54,0.69-0.82c0.19-0.28,0.34-0.58,0.44-0.89c0.11-0.31,0.16-0.65,0.16-1.02c0-0.4-0.06-0.75-0.19-1.05
			c-0.12-0.3-0.3-0.55-0.52-0.75c-0.22-0.2-0.48-0.35-0.79-0.45c-0.3-0.1-0.63-0.15-0.99-0.15c-0.62,0-1.25,0.14-1.89,0.43
			c-0.64,0.29-1.26,0.72-1.85,1.3v-2.36c0.31-0.23,0.62-0.44,0.94-0.61c0.32-0.17,0.65-0.32,0.98-0.43s0.69-0.2,1.07-0.26
			c0.37-0.06,0.77-0.08,1.19-0.08c0.68,0,1.3,0.09,1.86,0.27c0.56,0.18,1.03,0.44,1.43,0.79c0.4,0.35,0.7,0.79,0.92,1.31
			c0.21,0.52,0.32,1.12,0.32,1.8c0,0.61-0.08,1.17-0.23,1.65c-0.15,0.49-0.37,0.95-0.65,1.37c-0.28,0.42-0.61,0.83-1.01,1.21
			s-0.84,0.77-1.32,1.17c-0.41,0.33-0.82,0.65-1.22,0.97c-0.41,0.31-0.77,0.62-1.09,0.92s-0.59,0.6-0.79,0.9
			c-0.2,0.3-0.3,0.6-0.3,0.9v0.05h6.84V196.44z"/>
		<path class="st1" d="M615.71,180.93v15.5h-2.45v-12.5c-0.44,0.32-0.92,0.59-1.43,0.81c-0.51,0.22-1.09,0.42-1.75,0.59v-2.09
			c0.41-0.13,0.8-0.27,1.18-0.42c0.38-0.15,0.76-0.31,1.13-0.5s0.74-0.39,1.12-0.61c0.38-0.23,0.77-0.48,1.17-0.77H615.71z"/>
		<path class="st1" d="M620.53,196.67c-0.42,0-0.78-0.14-1.08-0.42c-0.3-0.28-0.44-0.61-0.44-1c0-0.39,0.15-0.73,0.44-1.01
			c0.3-0.28,0.66-0.42,1.08-0.42c0.43,0,0.79,0.14,1.09,0.42c0.3,0.28,0.45,0.62,0.45,1.01c0,0.39-0.15,0.72-0.45,1
			C621.32,196.53,620.96,196.67,620.53,196.67z"/>
		<path class="st1" d="M625.75,196.67c-0.42,0-0.78-0.14-1.08-0.42c-0.3-0.28-0.44-0.61-0.44-1c0-0.39,0.15-0.73,0.44-1.01
			c0.3-0.28,0.66-0.42,1.08-0.42c0.43,0,0.79,0.14,1.09,0.42c0.3,0.28,0.45,0.62,0.45,1.01c0,0.39-0.15,0.72-0.45,1
			C626.55,196.53,626.18,196.67,625.75,196.67z"/>
		<path class="st1" d="M630.98,196.67c-0.42,0-0.78-0.14-1.08-0.42c-0.3-0.28-0.44-0.61-0.44-1c0-0.39,0.15-0.73,0.44-1.01
			c0.3-0.28,0.66-0.42,1.08-0.42c0.43,0,0.79,0.14,1.09,0.42c0.3,0.28,0.45,0.62,0.45,1.01c0,0.39-0.15,0.72-0.45,1
			C631.77,196.53,631.41,196.67,630.98,196.67z"/>
		<path class="st1" d="M644.46,182.5c-0.63,1.16-1.23,2.31-1.8,3.45c-0.56,1.14-1.08,2.28-1.53,3.43c-0.46,1.15-0.86,2.31-1.19,3.47
			c-0.34,1.17-0.6,2.36-0.78,3.58h-2.57c0.17-1.09,0.41-2.17,0.72-3.25c0.31-1.08,0.68-2.16,1.11-3.25c0.42-1.08,0.9-2.17,1.42-3.26
			c0.53-1.09,1.08-2.2,1.68-3.31h-7.18v-2.09h10.13V182.5z"/>
		<path class="st1" d="M646.84,196.09v-2.36c0.99,0.67,2,1,3.02,1c1.03,0,1.86-0.26,2.48-0.79s0.94-1.22,0.94-2.1
			c0-0.86-0.32-1.53-0.96-2.01c-0.64-0.48-1.55-0.72-2.74-0.72c-0.41,0-1.24,0.04-2.49,0.13l0.54-7.97h7.47v2.09h-5.42l-0.25,3.8
			c0.49-0.03,0.93-0.04,1.32-0.04c1.61,0,2.85,0.41,3.73,1.24c0.88,0.83,1.32,1.95,1.32,3.38c0,1.5-0.5,2.71-1.51,3.61
			c-1,0.91-2.38,1.36-4.14,1.36C648.67,196.71,647.57,196.5,646.84,196.09z"/>
	</g>
</g>
<g>
	<g>
		<path class="st1" d="M766.01,182.65c-0.63,1.16-1.23,2.31-1.8,3.45c-0.56,1.14-1.08,2.28-1.53,3.43c-0.46,1.15-0.86,2.31-1.2,3.47
			c-0.34,1.17-0.6,2.36-0.78,3.58h-2.57c0.17-1.09,0.41-2.17,0.72-3.25s0.68-2.16,1.11-3.25s0.9-2.17,1.42-3.26s1.08-2.2,1.68-3.31
			h-7.18v-2.09h10.13V182.65z"/>
		<path class="st1" d="M778.02,191.71c0,0.76-0.12,1.46-0.38,2.08c-0.25,0.63-0.6,1.17-1.04,1.62c-0.44,0.46-0.97,0.81-1.58,1.06
			c-0.61,0.25-1.27,0.38-1.98,0.38c-0.76,0-1.46-0.15-2.1-0.44c-0.64-0.3-1.19-0.74-1.65-1.32c-0.46-0.58-0.82-1.31-1.07-2.18
			c-0.25-0.87-0.38-1.88-0.38-3.03c0-1.4,0.17-2.65,0.5-3.73c0.33-1.08,0.79-1.99,1.38-2.73s1.27-1.29,2.06-1.67
			c0.79-0.38,1.64-0.57,2.56-0.57c0.57,0,1.09,0.04,1.56,0.12c0.47,0.08,0.84,0.18,1.13,0.32v2.21c-0.36-0.18-0.74-0.34-1.15-0.46
			s-0.88-0.19-1.41-0.19c-0.59,0-1.14,0.12-1.64,0.36c-0.5,0.24-0.93,0.59-1.3,1.05c-0.36,0.46-0.65,1.03-0.86,1.71
			c-0.21,0.68-0.32,1.46-0.32,2.35h0.06c0.32-0.5,0.76-0.9,1.32-1.18c0.55-0.29,1.2-0.43,1.95-0.43c0.66,0,1.26,0.11,1.79,0.32
			c0.53,0.21,0.99,0.52,1.36,0.93c0.38,0.41,0.67,0.9,0.87,1.48C777.92,190.33,778.02,190.98,778.02,191.71z M775.54,191.91
			c0-0.44-0.05-0.84-0.15-1.2c-0.1-0.36-0.26-0.67-0.46-0.92c-0.21-0.26-0.47-0.46-0.78-0.6c-0.31-0.14-0.68-0.21-1.11-0.21
			s-0.79,0.08-1.12,0.23c-0.32,0.15-0.59,0.35-0.81,0.6s-0.38,0.53-0.49,0.85s-0.16,0.64-0.16,0.97c0,0.36,0.05,0.73,0.15,1.11
			s0.26,0.72,0.47,1.03c0.21,0.31,0.48,0.57,0.81,0.77c0.33,0.2,0.72,0.3,1.17,0.3c0.4,0,0.76-0.07,1.07-0.22
			c0.31-0.15,0.57-0.35,0.78-0.61s0.37-0.57,0.48-0.92C775.49,192.71,775.54,192.33,775.54,191.91z"/>
		<path class="st1" d="M781.45,196.82c-0.42,0-0.78-0.14-1.08-0.42c-0.3-0.28-0.44-0.61-0.44-1c0-0.39,0.15-0.73,0.44-1.01
			c0.3-0.28,0.66-0.42,1.08-0.42c0.43,0,0.79,0.14,1.09,0.42c0.3,0.28,0.45,0.62,0.45,1.01c0,0.39-0.15,0.72-0.45,1
			C782.25,196.68,781.88,196.82,781.45,196.82z"/>
		<path class="st1" d="M786.68,196.82c-0.42,0-0.78-0.14-1.08-0.42c-0.3-0.28-0.44-0.61-0.44-1c0-0.39,0.15-0.73,0.44-1.01
			c0.3-0.28,0.66-0.42,1.08-0.42c0.43,0,0.79,0.14,1.09,0.42c0.3,0.28,0.45,0.62,0.45,1.01c0,0.39-0.15,0.72-0.45,1
			C787.47,196.68,787.11,196.82,786.68,196.82z"/>
		<path class="st1" d="M791.9,196.82c-0.42,0-0.78-0.14-1.08-0.42c-0.3-0.28-0.44-0.61-0.44-1c0-0.39,0.15-0.73,0.44-1.01
			c0.3-0.28,0.66-0.42,1.08-0.42c0.43,0,0.79,0.14,1.09,0.42c0.3,0.28,0.45,0.62,0.45,1.01c0,0.39-0.15,0.72-0.45,1
			C792.7,196.68,792.33,196.82,791.9,196.82z"/>
		<path class="st1" d="M801.02,181.08v15.5h-2.45v-12.5c-0.44,0.32-0.92,0.59-1.43,0.81c-0.51,0.22-1.09,0.42-1.75,0.59v-2.09
			c0.41-0.13,0.8-0.27,1.18-0.42s0.76-0.31,1.13-0.5s0.74-0.39,1.12-0.61s0.77-0.48,1.17-0.77H801.02z"/>
		<path class="st1" d="M804.87,196.24v-2.36c0.99,0.67,2,1,3.02,1c1.03,0,1.86-0.26,2.49-0.79c0.63-0.53,0.94-1.22,0.94-2.1
			c0-0.86-0.32-1.53-0.96-2.01c-0.64-0.48-1.55-0.72-2.74-0.72c-0.41,0-1.24,0.04-2.49,0.13l0.54-7.97h7.47v2.09h-5.42l-0.25,3.8
			c0.49-0.03,0.93-0.04,1.32-0.04c1.61,0,2.85,0.41,3.73,1.24s1.32,1.95,1.32,3.38c0,1.5-0.5,2.71-1.51,3.61
			c-1,0.91-2.38,1.36-4.14,1.36C806.7,196.86,805.59,196.65,804.87,196.24z"/>
		<path class="st1" d="M821.1,196.84c-1.58,0-2.81-0.65-3.7-1.94c-0.88-1.29-1.33-3.15-1.33-5.59c0-2.68,0.46-4.71,1.38-6.08
			c0.92-1.38,2.26-2.06,4-2.06c3.33,0,5,2.59,5,7.77c0,2.57-0.47,4.52-1.41,5.87C824.11,196.16,822.79,196.84,821.1,196.84z
			 M821.34,183.12c-1.84,0-2.76,2.03-2.76,6.08c0,3.79,0.9,5.69,2.71,5.69c1.78,0,2.67-1.93,2.67-5.78
			C823.95,185.12,823.08,183.12,821.34,183.12z"/>
	</g>
</g>
<g>
	<g>
		<path class="st1" d="M1032.9,163.73v15.5h-2.45v-12.5c-0.44,0.32-0.92,0.59-1.43,0.81c-0.51,0.22-1.09,0.42-1.75,0.59v-2.09
			c0.41-0.13,0.8-0.27,1.18-0.42s0.76-0.31,1.13-0.5s0.74-0.39,1.12-0.61s0.77-0.48,1.17-0.77H1032.9z"/>
		<path class="st1" d="M1036.75,178.88v-2.36c0.99,0.67,2,1,3.02,1c1.03,0,1.86-0.26,2.49-0.79c0.63-0.53,0.94-1.22,0.94-2.1
			c0-0.86-0.32-1.53-0.96-2.01c-0.64-0.48-1.55-0.72-2.74-0.72c-0.41,0-1.24,0.04-2.49,0.13l0.54-7.97h7.47v2.09h-5.42l-0.25,3.8
			c0.49-0.03,0.93-0.04,1.32-0.04c1.61,0,2.85,0.41,3.73,1.24s1.32,1.95,1.32,3.38c0,1.5-0.5,2.71-1.51,3.61
			c-1,0.91-2.38,1.36-4.14,1.36C1038.58,179.5,1037.48,179.3,1036.75,178.88z"/>
		<path class="st1" d="M1053.64,163.73v15.5h-2.45v-12.5c-0.44,0.32-0.92,0.59-1.43,0.81c-0.51,0.22-1.09,0.42-1.75,0.59v-2.09
			c0.41-0.13,0.8-0.27,1.18-0.42s0.76-0.31,1.13-0.5s0.74-0.39,1.12-0.61s0.77-0.48,1.17-0.77H1053.64z"/>
		<path class="st1" d="M1076.54,179.23h-2.42v-10.1c0-0.91,0.04-1.55,0.11-1.92h-0.06c-0.12,0.32-0.27,0.61-0.44,0.88l-7.28,11.15
			h-2.76v-15.16h2.43v9.64c0,1.11-0.03,1.83-0.08,2.17h0.04c0.14-0.28,0.32-0.59,0.55-0.93l7.02-10.88h2.9V179.23z"/>
		<path class="st1" d="M1086.25,179.23v-15.16h8.85v2.15h-6.33v4.15h2.9c1.55,0,2.76,0.37,3.62,1.1c0.86,0.73,1.29,1.77,1.29,3.12
			c0,1.44-0.46,2.57-1.38,3.41c-0.92,0.83-2.17,1.25-3.76,1.25H1086.25z M1088.77,172.35v4.87h2.27c0.92,0,1.64-0.22,2.14-0.66
			c0.5-0.44,0.75-1.05,0.75-1.83c0-1.59-0.95-2.38-2.84-2.38H1088.77z"/>
		<path class="st1" d="M1105.57,179.48c-2.19,0-3.94-0.71-5.25-2.13c-1.32-1.42-1.97-3.26-1.97-5.53c0-2.44,0.67-4.38,2.01-5.84
			c1.34-1.45,3.16-2.18,5.46-2.18c2.13,0,3.84,0.71,5.14,2.12s1.95,3.25,1.95,5.53c0,2.47-0.67,4.43-2,5.87
			C1109.58,178.76,1107.8,179.48,1105.57,179.48z M1105.69,166.02c-1.39,0-2.52,0.52-3.39,1.55c-0.87,1.04-1.31,2.4-1.31,4.09
			c0,1.68,0.42,3.04,1.27,4.07s1.95,1.54,3.32,1.54c1.45,0,2.6-0.49,3.44-1.47c0.84-0.98,1.26-2.35,1.26-4.11
			c0-1.81-0.41-3.21-1.22-4.2C1108.24,166.52,1107.12,166.02,1105.69,166.02z"/>
		<path class="st1" d="M1127.06,179.23h-2.52v-13h-3.68c-0.51,3.66-0.92,6.24-1.22,7.76c-0.3,1.51-0.6,2.63-0.9,3.34
			c-0.3,0.72-0.72,1.25-1.24,1.6c-0.52,0.35-1.15,0.52-1.87,0.52c-0.62,0-1.16-0.08-1.62-0.24v-2.15c0.34,0.18,0.71,0.26,1.13,0.26
			c0.43,0,0.83-0.25,1.21-0.75c0.37-0.5,0.76-1.8,1.15-3.91c0.39-2.1,0.82-4.97,1.29-8.6h8.26V179.23z"/>
		<path class="st1" d="M1139.34,179.23h-8.51v-15.16h8.17v2.14h-5.66v4.29h5.21v2.12h-5.21v4.48h6V179.23z"/>
		<path class="st1" d="M1150.55,179.23h-8.51v-15.16h8.17v2.14h-5.66v4.29h5.21v2.12h-5.21v4.48h6V179.23z"/>
		<path class="st1" d="M911.17,208.66h-2.07c-2.23-2.5-3.34-5.57-3.34-9.23c0-3.67,1.11-6.8,3.34-9.38h2.08
			c-2.19,2.68-3.28,5.8-3.28,9.36C907.91,202.94,909,206.03,911.17,208.66z"/>
		<path class="st1" d="M912.28,204.63v-2.41c1.19,0.85,2.54,1.27,4.06,1.27c0.99,0,1.79-0.23,2.37-0.69
			c0.59-0.46,0.88-1.08,0.88-1.86c0-1.69-1.2-2.54-3.58-2.54h-1.75v-1.97h1.64c1.01,0,1.8-0.21,2.36-0.63
			c0.56-0.42,0.84-1.02,0.84-1.79c0-0.66-0.24-1.19-0.71-1.59c-0.47-0.4-1.12-0.6-1.95-0.6c-1.25,0-2.48,0.38-3.67,1.14v-2.24
			c1.17-0.61,2.52-0.92,4.05-0.92c1.52,0,2.72,0.35,3.59,1.04s1.31,1.61,1.31,2.73c0,1.95-0.98,3.19-2.93,3.7v0.04
			c1.04,0.12,1.87,0.51,2.49,1.16c0.62,0.66,0.92,1.47,0.92,2.43c0,1.39-0.52,2.5-1.55,3.32c-1.04,0.83-2.45,1.24-4.25,1.24
			C914.63,205.47,913.26,205.19,912.28,204.63z"/>
		<path class="st1" d="M937.59,205.22h-2.76l-1.36-3.86h-5.96l-1.31,3.86h-2.75l5.68-15.16h2.83L937.59,205.22z M932.8,199.31
			l-2.1-6.05c-0.06-0.2-0.13-0.51-0.2-0.95h-0.04c-0.06,0.4-0.13,0.72-0.21,0.95l-2.08,6.05H932.8z"/>
		<path class="st1" d="M951.15,205.22h-3.28l-5.28-6.94c-0.2-0.26-0.32-0.44-0.36-0.53h-0.04v7.47h-2.52v-15.16h2.52v7.13h0.04
			c0.08-0.15,0.2-0.33,0.36-0.52l5.09-6.61h3.01l-5.95,7.28L951.15,205.22z"/>
		<path class="st1" d="M955.41,199.72v5.5h-2.51v-15.16h4.6c1.74,0,3.09,0.41,4.05,1.22s1.44,1.95,1.44,3.43s-0.5,2.68-1.5,3.62
			s-2.35,1.41-4.06,1.41H955.41z M955.41,192.13v5.54h1.63c1.08,0,1.9-0.25,2.46-0.75c0.56-0.5,0.85-1.21,0.85-2.12
			c0-1.78-1.04-2.68-3.11-2.68H955.41z"/>
		<path class="st1" d="M974.07,205.22h-8.51v-15.16h8.17v2.14h-5.66v4.29h5.21v2.12h-5.21v4.48h6V205.22z"/>
		<path class="st1" d="M989,205.22h-2.53v-12.91h-7.19v12.91h-2.52v-15.16H989V205.22z"/>
		<path class="st1" d="M1004.08,205.22h-2.52v-13h-3.68c-0.51,3.66-0.92,6.24-1.22,7.76c-0.3,1.51-0.6,2.63-0.9,3.34
			c-0.3,0.72-0.72,1.25-1.24,1.6c-0.52,0.35-1.15,0.52-1.87,0.52c-0.62,0-1.16-0.08-1.62-0.24v-2.15c0.34,0.18,0.71,0.26,1.13,0.26
			c0.43,0,0.83-0.25,1.21-0.75c0.37-0.5,0.76-1.8,1.15-3.91c0.39-2.1,0.82-4.97,1.29-8.6h8.26V205.22z"/>
		<path class="st1" d="M1017.36,205.22h-2.52v-6.2h-1.63c-0.42,0-0.78,0.12-1.09,0.35c-0.31,0.23-0.65,0.75-1.01,1.55l-1.8,4.29
			h-2.94l2.23-4.82c0.18-0.37,0.45-0.77,0.81-1.18c0.36-0.41,0.78-0.71,1.26-0.88v-0.04c-1.04-0.22-1.86-0.68-2.44-1.38
			c-0.58-0.7-0.87-1.55-0.87-2.55c0-1.3,0.48-2.34,1.45-3.12s2.23-1.18,3.81-1.18h4.74V205.22z M1014.85,196.99v-4.87h-2.1
			c-0.86,0-1.53,0.21-2,0.62c-0.47,0.42-0.71,1-0.71,1.77c0,0.77,0.25,1.37,0.76,1.82s1.18,0.67,2.04,0.67H1014.85z"/>
		<path class="st1" d="M1029.63,205.22h-8.51v-15.16h8.17v2.14h-5.66v4.29h5.21v2.12h-5.21v4.48h6V205.22z"/>
		<path class="st1" d="M1042.06,192.19h-4.36v13.03h-2.52v-13.03h-4.35v-2.14h11.22V192.19z"/>
		<path class="st1" d="M1054.85,204.58c-1.14,0.59-2.56,0.89-4.26,0.89c-2.2,0-3.96-0.69-5.29-2.08s-1.99-3.21-1.99-5.47
			c0-2.42,0.75-4.38,2.24-5.88c1.49-1.5,3.38-2.24,5.65-2.24c1.47,0,2.68,0.21,3.65,0.62v2.5c-1.02-0.61-2.15-0.91-3.38-0.91
			c-1.64,0-2.97,0.53-3.99,1.58c-1.02,1.05-1.53,2.45-1.53,4.21c0,1.67,0.48,3,1.43,3.99c0.95,0.99,2.2,1.49,3.75,1.49
			c1.43,0,2.67-0.34,3.72-1.02V204.58z"/>
		<path class="st1" d="M1067.25,205.22h-2.52v-6.2h-1.63c-0.42,0-0.78,0.12-1.09,0.35c-0.31,0.23-0.65,0.75-1.01,1.55l-1.8,4.29
			h-2.94l2.23-4.82c0.18-0.37,0.45-0.77,0.81-1.18c0.36-0.41,0.78-0.71,1.26-0.88v-0.04c-1.04-0.22-1.86-0.68-2.44-1.38
			c-0.58-0.7-0.87-1.55-0.87-2.55c0-1.3,0.48-2.34,1.45-3.12s2.23-1.18,3.81-1.18h4.74V205.22z M1064.73,196.99v-4.87h-2.1
			c-0.86,0-1.53,0.21-2,0.62c-0.47,0.42-0.71,1-0.71,1.77c0,0.77,0.25,1.37,0.76,1.82s1.18,0.67,2.04,0.67H1064.73z"/>
		<path class="st1" d="M1079.49,189.76l-1.15,4.71h-2.19l1.72-4.71H1079.49z"/>
		<path class="st1" d="M1085.15,189.76l-1.72,4.71h-1.62l1.2-4.71H1085.15z"/>
		<path class="st1" d="M1104.34,205.22h-2.5v-9.81c0-0.8,0.05-1.79,0.15-2.95h-0.04c-0.16,0.66-0.29,1.14-0.41,1.43l-4.53,11.34
			h-1.73l-4.54-11.25c-0.13-0.33-0.26-0.84-0.4-1.51h-0.04c0.06,0.61,0.08,1.6,0.08,2.97v9.79h-2.33v-15.16h3.54l3.99,10.1
			c0.3,0.78,0.5,1.35,0.59,1.73h0.05c0.26-0.8,0.47-1.39,0.63-1.78l4.06-10.06h3.42V205.22z"/>
		<path class="st1" d="M1114.32,205.47c-2.19,0-3.94-0.71-5.25-2.13c-1.32-1.42-1.97-3.26-1.97-5.53c0-2.44,0.67-4.38,2.01-5.84
			c1.34-1.45,3.16-2.18,5.46-2.18c2.13,0,3.84,0.71,5.14,2.12s1.95,3.25,1.95,5.53c0,2.47-0.67,4.43-2,5.87
			C1118.33,204.75,1116.55,205.47,1114.32,205.47z M1114.44,192.01c-1.39,0-2.52,0.52-3.39,1.55c-0.87,1.04-1.31,2.4-1.31,4.09
			c0,1.68,0.42,3.04,1.27,4.07s1.95,1.54,3.32,1.54c1.45,0,2.6-0.49,3.44-1.47c0.84-0.98,1.26-2.35,1.26-4.11
			c0-1.81-0.41-3.21-1.22-4.2C1116.99,192.5,1115.87,192.01,1114.44,192.01z"/>
		<path class="st1" d="M1137.63,209.31h-2.25v-4.09h-10.3v4.09h-2.24v-6.23h1.28c0.95-1.78,1.76-3.87,2.42-6.25
			c0.66-2.38,1.04-4.64,1.12-6.78h7.88v13.03h2.09V209.31z M1133.02,203.08v-10.86h-3.28c-0.1,1.58-0.44,3.43-1.03,5.55
			s-1.24,3.89-1.96,5.31H1133.02z"/>
		<path class="st1" d="M1148.77,205.22h-8.51v-15.16h8.17v2.14h-5.66v4.29h5.21v2.12h-5.21v4.48h6V205.22z"/>
		<path class="st1" d="M1153.97,199.72v5.5h-2.51v-15.16h4.6c1.74,0,3.09,0.41,4.05,1.22s1.44,1.95,1.44,3.43s-0.5,2.68-1.5,3.62
			s-2.35,1.41-4.06,1.41H1153.97z M1153.97,192.13v5.54h1.63c1.08,0,1.9-0.25,2.46-0.75c0.56-0.5,0.85-1.21,0.85-2.12
			c0-1.78-1.04-2.68-3.11-2.68H1153.97z"/>
		<path class="st1" d="M1176.58,205.22h-2.76l-1.36-3.86h-5.96l-1.31,3.86h-2.75l5.68-15.16h2.83L1176.58,205.22z M1171.79,199.31
			l-2.1-6.05c-0.06-0.2-0.13-0.51-0.2-0.95h-0.04c-0.06,0.4-0.13,0.72-0.21,0.95l-2.08,6.05H1171.79z"/>
		<path class="st1" d="M1188.39,192.19h-4.36v13.03h-2.52v-13.03h-4.35v-2.14h11.22V192.19z"/>
		<path class="st1" d="M1196.86,205.47c-2.19,0-3.94-0.71-5.25-2.13c-1.32-1.42-1.97-3.26-1.97-5.53c0-2.44,0.67-4.38,2.01-5.84
			c1.34-1.45,3.16-2.18,5.46-2.18c2.13,0,3.84,0.71,5.14,2.12s1.95,3.25,1.95,5.53c0,2.47-0.67,4.43-2,5.87
			C1200.87,204.75,1199.09,205.47,1196.86,205.47z M1196.97,192.01c-1.39,0-2.52,0.52-3.39,1.55c-0.87,1.04-1.31,2.4-1.31,4.09
			c0,1.68,0.42,3.04,1.27,4.07s1.95,1.54,3.32,1.54c1.45,0,2.6-0.49,3.44-1.47c0.84-0.98,1.26-2.35,1.26-4.11
			c0-1.81-0.41-3.21-1.22-4.2C1199.53,192.5,1198.41,192.01,1196.97,192.01z"/>
		<path class="st1" d="M1209.49,199.72v5.5h-2.51v-15.16h4.6c1.74,0,3.09,0.41,4.05,1.22s1.44,1.95,1.44,3.43s-0.5,2.68-1.5,3.62
			s-2.35,1.41-4.06,1.41H1209.49z M1209.49,192.13v5.54h1.63c1.08,0,1.9-0.25,2.46-0.75c0.56-0.5,0.85-1.21,0.85-2.12
			c0-1.78-1.04-2.68-3.11-2.68H1209.49z"/>
		<path class="st1" d="M1230.22,189.71v15.5h-2.45v-12.5c-0.44,0.32-0.92,0.59-1.43,0.81c-0.51,0.22-1.09,0.42-1.75,0.59v-2.09
			c0.41-0.13,0.8-0.27,1.18-0.42s0.76-0.31,1.13-0.5s0.74-0.39,1.12-0.61s0.77-0.48,1.17-0.77H1230.22z"/>
		<path class="st1" d="M1244.88,204.58c-1.14,0.59-2.56,0.89-4.26,0.89c-2.2,0-3.96-0.69-5.29-2.08s-1.99-3.21-1.99-5.47
			c0-2.42,0.75-4.38,2.24-5.88c1.49-1.5,3.38-2.24,5.65-2.24c1.47,0,2.68,0.21,3.65,0.62v2.5c-1.02-0.61-2.15-0.91-3.38-0.91
			c-1.64,0-2.97,0.53-3.99,1.58c-1.02,1.05-1.53,2.45-1.53,4.21c0,1.67,0.48,3,1.43,3.99c0.95,0.99,2.2,1.49,3.75,1.49
			c1.43,0,2.67-0.34,3.72-1.02V204.58z"/>
		<path class="st1" d="M1250.4,189.76l-1.72,4.71h-1.62l1.2-4.71H1250.4z"/>
		<path class="st1" d="M1255.95,189.76l-1.72,4.71h-1.62l1.2-4.71H1255.95z"/>
		<path class="st1" d="M1259.28,208.66h-2.07c2.19-2.64,3.28-5.72,3.28-9.25c0-3.56-1.1-6.68-3.29-9.36h2.09
			c2.23,2.58,3.35,5.71,3.35,9.38C1262.64,203.09,1261.52,206.17,1259.28,208.66z"/>
		<path class="st1" d="M1272.83,193.79l-2.9,0.5l2.03,2.42l-1.5,1.04l-1.57-2.75l-1.56,2.75l-1.51-1.04l2.04-2.42l-2.91-0.5
			l0.6-1.69l2.72,1.09l-0.34-3.13h1.92l-0.34,3.13l2.72-1.09L1272.83,193.79z"/>
	</g>
</g>
<g>
	<g>
		<path class="st1" d="M126.43,444.7h-9.52v-1.17c0-0.48,0.07-0.93,0.2-1.35c0.13-0.42,0.31-0.81,0.54-1.18s0.49-0.72,0.79-1.05
			c0.3-0.33,0.63-0.65,0.97-0.95s0.7-0.6,1.06-0.89c0.36-0.29,0.71-0.57,1.06-0.86c0.32-0.28,0.62-0.54,0.89-0.81
			c0.27-0.26,0.5-0.54,0.69-0.82c0.19-0.28,0.34-0.58,0.44-0.89c0.11-0.31,0.16-0.65,0.16-1.02c0-0.4-0.06-0.75-0.19-1.05
			c-0.12-0.3-0.3-0.55-0.52-0.75c-0.22-0.2-0.48-0.35-0.79-0.45c-0.3-0.1-0.63-0.15-0.99-0.15c-0.62,0-1.25,0.14-1.89,0.43
			c-0.64,0.29-1.26,0.72-1.85,1.3v-2.36c0.31-0.23,0.62-0.44,0.94-0.61c0.32-0.17,0.65-0.32,0.98-0.43s0.69-0.2,1.07-0.26
			c0.37-0.06,0.77-0.08,1.19-0.08c0.68,0,1.3,0.09,1.86,0.27c0.56,0.18,1.03,0.44,1.43,0.79c0.4,0.35,0.7,0.79,0.92,1.31
			c0.21,0.52,0.32,1.12,0.32,1.8c0,0.61-0.08,1.17-0.23,1.65c-0.15,0.49-0.37,0.95-0.65,1.37c-0.28,0.42-0.61,0.83-1.01,1.21
			s-0.84,0.77-1.32,1.17c-0.41,0.33-0.82,0.65-1.22,0.97c-0.41,0.31-0.77,0.62-1.09,0.92s-0.59,0.6-0.79,0.9
			c-0.2,0.3-0.3,0.6-0.3,0.9v0.05h6.84V444.7z"/>
		<path class="st1" d="M129.54,444.35v-2.36c0.99,0.67,2,1,3.02,1c1.03,0,1.86-0.26,2.48-0.79s0.94-1.22,0.94-2.1
			c0-0.86-0.32-1.53-0.96-2.01c-0.64-0.48-1.55-0.72-2.74-0.72c-0.41,0-1.24,0.04-2.49,0.13l0.54-7.97h7.47v2.09h-5.42l-0.25,3.8
			c0.49-0.03,0.93-0.04,1.32-0.04c1.61,0,2.85,0.41,3.73,1.24c0.88,0.83,1.32,1.95,1.32,3.38c0,1.5-0.5,2.71-1.51,3.61
			c-1,0.91-2.38,1.36-4.14,1.36C131.37,444.97,130.26,444.76,129.54,444.35z"/>
		<path class="st1" d="M145.77,444.95c-1.58,0-2.81-0.65-3.7-1.94s-1.33-3.15-1.33-5.59c0-2.68,0.46-4.71,1.39-6.08
			c0.92-1.38,2.26-2.06,4-2.06c3.33,0,5,2.59,5,7.77c0,2.57-0.47,4.52-1.41,5.87C148.78,444.27,147.46,444.95,145.77,444.95z
			 M146.01,431.23c-1.84,0-2.76,2.03-2.76,6.08c0,3.79,0.9,5.69,2.71,5.69c1.78,0,2.67-1.93,2.67-5.78
			C148.62,433.23,147.75,431.23,146.01,431.23z"/>
		<path class="st1" d="M157.79,444.95c-1.58,0-2.81-0.65-3.7-1.94s-1.33-3.15-1.33-5.59c0-2.68,0.46-4.71,1.39-6.08
			c0.92-1.38,2.26-2.06,4-2.06c3.33,0,5,2.59,5,7.77c0,2.57-0.47,4.52-1.41,5.87C160.8,444.27,159.48,444.95,157.79,444.95z
			 M158.04,431.23c-1.84,0-2.76,2.03-2.76,6.08c0,3.79,0.9,5.69,2.71,5.69c1.78,0,2.67-1.93,2.67-5.78
			C160.65,433.23,159.78,431.23,158.04,431.23z"/>
	</g>
</g>
<g>
	<g>
		<path class="st1" d="M390.7,444.63h-9.52v-1.17c0-0.48,0.07-0.93,0.2-1.35c0.13-0.42,0.31-0.81,0.54-1.18s0.49-0.72,0.79-1.05
			c0.3-0.33,0.63-0.65,0.97-0.95s0.7-0.6,1.06-0.89c0.36-0.29,0.71-0.57,1.06-0.86c0.32-0.28,0.62-0.54,0.89-0.81
			c0.27-0.26,0.5-0.54,0.69-0.82c0.19-0.28,0.34-0.58,0.44-0.89c0.11-0.31,0.16-0.65,0.16-1.02c0-0.4-0.06-0.75-0.19-1.05
			c-0.12-0.3-0.3-0.55-0.52-0.75c-0.22-0.2-0.48-0.35-0.79-0.45c-0.3-0.1-0.63-0.15-0.99-0.15c-0.62,0-1.25,0.14-1.89,0.43
			c-0.64,0.29-1.26,0.72-1.85,1.3v-2.36c0.31-0.23,0.62-0.44,0.94-0.61c0.32-0.17,0.65-0.32,0.98-0.43s0.69-0.2,1.07-0.26
			c0.37-0.06,0.77-0.08,1.19-0.08c0.68,0,1.3,0.09,1.86,0.27c0.56,0.18,1.03,0.44,1.43,0.79c0.4,0.35,0.7,0.79,0.92,1.31
			c0.21,0.52,0.32,1.12,0.32,1.8c0,0.61-0.08,1.17-0.23,1.65c-0.15,0.49-0.37,0.95-0.65,1.37c-0.28,0.42-0.61,0.83-1.01,1.21
			s-0.84,0.77-1.32,1.17c-0.41,0.33-0.82,0.65-1.22,0.97c-0.41,0.31-0.77,0.62-1.09,0.92s-0.59,0.6-0.79,0.9
			c-0.2,0.3-0.3,0.6-0.3,0.9v0.05h6.84V444.63z"/>
		<path class="st1" d="M398.02,444.88c-1.58,0-2.81-0.65-3.7-1.94s-1.33-3.15-1.33-5.59c0-2.68,0.46-4.71,1.39-6.08
			c0.92-1.38,2.26-2.06,4-2.06c3.33,0,5,2.59,5,7.77c0,2.57-0.47,4.52-1.41,5.87C401.03,444.21,399.71,444.88,398.02,444.88z
			 M398.26,431.17c-1.84,0-2.76,2.03-2.76,6.08c0,3.79,0.9,5.69,2.71,5.69c1.78,0,2.67-1.93,2.67-5.78
			C400.88,433.16,400.01,431.17,398.26,431.17z"/>
		<path class="st1" d="M410.04,444.88c-1.58,0-2.81-0.65-3.7-1.94s-1.33-3.15-1.33-5.59c0-2.68,0.46-4.71,1.39-6.08
			c0.92-1.38,2.26-2.06,4-2.06c3.33,0,5,2.59,5,7.77c0,2.57-0.47,4.52-1.41,5.87C413.05,444.21,411.74,444.88,410.04,444.88z
			 M410.29,431.17c-1.84,0-2.76,2.03-2.76,6.08c0,3.79,0.9,5.69,2.71,5.69c1.78,0,2.67-1.93,2.67-5.78
			C412.9,433.16,412.03,431.17,410.29,431.17z"/>
		<path class="st1" d="M422.07,444.88c-1.58,0-2.81-0.65-3.7-1.94s-1.33-3.15-1.33-5.59c0-2.68,0.46-4.71,1.39-6.08
			c0.92-1.38,2.26-2.06,4-2.06c3.33,0,5,2.59,5,7.77c0,2.57-0.47,4.52-1.41,5.87C425.08,444.21,423.76,444.88,422.07,444.88z
			 M422.31,431.17c-1.84,0-2.76,2.03-2.76,6.08c0,3.79,0.9,5.69,2.71,5.69c1.78,0,2.67-1.93,2.67-5.78
			C424.92,433.16,424.05,431.17,422.31,431.17z"/>
	</g>
</g>
<g>
	<g>
		<path class="st1" d="M611.04,429.39v15.5h-2.45v-12.5c-0.44,0.32-0.92,0.59-1.43,0.81c-0.51,0.22-1.09,0.42-1.75,0.59v-2.09
			c0.41-0.13,0.8-0.27,1.18-0.42c0.38-0.15,0.76-0.31,1.13-0.5s0.74-0.39,1.12-0.61c0.38-0.23,0.77-0.48,1.17-0.77H611.04z"/>
		<path class="st1" d="M614.88,444.55v-2.36c0.99,0.67,2,1,3.02,1c1.03,0,1.86-0.26,2.48-0.79s0.94-1.22,0.94-2.1
			c0-0.86-0.32-1.53-0.96-2.01c-0.64-0.48-1.55-0.72-2.74-0.72c-0.41,0-1.24,0.04-2.49,0.13l0.54-7.97h7.47v2.09h-5.42l-0.25,3.8
			c0.49-0.03,0.93-0.04,1.32-0.04c1.61,0,2.85,0.41,3.73,1.24c0.88,0.83,1.32,1.95,1.32,3.38c0,1.5-0.5,2.71-1.51,3.61
			c-1,0.91-2.38,1.36-4.14,1.36C616.71,445.17,615.61,444.96,614.88,444.55z"/>
		<path class="st1" d="M631.12,445.15c-1.58,0-2.81-0.65-3.7-1.94s-1.33-3.15-1.33-5.59c0-2.68,0.46-4.71,1.39-6.08
			c0.92-1.38,2.26-2.06,4-2.06c3.33,0,5,2.59,5,7.77c0,2.57-0.47,4.52-1.41,5.87C634.12,444.48,632.81,445.15,631.12,445.15z
			 M631.36,431.43c-1.84,0-2.76,2.03-2.76,6.08c0,3.79,0.9,5.69,2.71,5.69c1.78,0,2.67-1.93,2.67-5.78
			C633.97,433.43,633.1,431.43,631.36,431.43z"/>
		<path class="st1" d="M643.14,445.15c-1.58,0-2.81-0.65-3.7-1.94s-1.33-3.15-1.33-5.59c0-2.68,0.46-4.71,1.39-6.08
			c0.92-1.38,2.26-2.06,4-2.06c3.33,0,5,2.59,5,7.77c0,2.57-0.47,4.52-1.41,5.87C646.15,444.48,644.83,445.15,643.14,445.15z
			 M643.38,431.43c-1.84,0-2.76,2.03-2.76,6.08c0,3.79,0.9,5.69,2.71,5.69c1.78,0,2.67-1.93,2.67-5.78
			C646,433.43,645.12,431.43,643.38,431.43z"/>
	</g>
</g>
<g>
	<g>
		<path class="st1" d="M775.16,428.76v15.5h-2.45v-12.5c-0.44,0.32-0.92,0.59-1.43,0.81c-0.51,0.22-1.09,0.42-1.75,0.59v-2.09
			c0.41-0.13,0.8-0.27,1.18-0.42s0.76-0.31,1.13-0.5s0.74-0.39,1.12-0.61s0.77-0.48,1.17-0.77H775.16z"/>
		<path class="st1" d="M783.22,444.51c-1.58,0-2.81-0.65-3.7-1.94c-0.88-1.29-1.33-3.15-1.33-5.59c0-2.68,0.46-4.71,1.38-6.08
			c0.92-1.38,2.26-2.06,4-2.06c3.33,0,5,2.59,5,7.77c0,2.57-0.47,4.52-1.41,5.87C786.23,443.84,784.91,444.51,783.22,444.51z
			 M783.46,430.8c-1.84,0-2.76,2.03-2.76,6.08c0,3.79,0.9,5.69,2.71,5.69c1.78,0,2.67-1.93,2.67-5.78
			C786.08,432.79,785.2,430.8,783.46,430.8z"/>
		<path class="st1" d="M795.24,444.51c-1.58,0-2.81-0.65-3.7-1.94c-0.88-1.29-1.33-3.15-1.33-5.59c0-2.68,0.46-4.71,1.38-6.08
			c0.92-1.38,2.26-2.06,4-2.06c3.33,0,5,2.59,5,7.77c0,2.57-0.47,4.52-1.41,5.87C798.25,443.84,796.94,444.51,795.24,444.51z
			 M795.49,430.8c-1.84,0-2.76,2.03-2.76,6.08c0,3.79,0.9,5.69,2.71,5.69c1.78,0,2.67-1.93,2.67-5.78
			C798.1,432.79,797.23,430.8,795.49,430.8z"/>
		<path class="st1" d="M807.27,444.51c-1.58,0-2.81-0.65-3.7-1.94c-0.88-1.29-1.33-3.15-1.33-5.59c0-2.68,0.46-4.71,1.38-6.08
			c0.92-1.38,2.26-2.06,4-2.06c3.33,0,5,2.59,5,7.77c0,2.57-0.47,4.52-1.41,5.87C810.28,443.84,808.96,444.51,807.27,444.51z
			 M807.51,430.8c-1.84,0-2.76,2.03-2.76,6.08c0,3.79,0.9,5.69,2.71,5.69c1.78,0,2.67-1.93,2.67-5.78
			C810.12,432.79,809.25,430.8,807.51,430.8z"/>
	</g>
</g>
<g>
	<g>
		<path class="st1" d="M1072.86,444.97v-2.36c0.99,0.67,2,1,3.02,1c1.03,0,1.86-0.26,2.49-0.79c0.63-0.53,0.94-1.22,0.94-2.1
			c0-0.86-0.32-1.53-0.96-2.01c-0.64-0.48-1.55-0.72-2.74-0.72c-0.41,0-1.24,0.04-2.49,0.13l0.54-7.97h7.47v2.09h-5.42l-0.25,3.8
			c0.49-0.03,0.93-0.04,1.32-0.04c1.61,0,2.85,0.41,3.73,1.24s1.32,1.95,1.32,3.38c0,1.5-0.5,2.71-1.51,3.61
			c-1,0.91-2.38,1.36-4.14,1.36C1074.69,445.6,1073.59,445.39,1072.86,444.97z"/>
		<path class="st1" d="M1089.09,445.58c-1.58,0-2.81-0.65-3.7-1.94c-0.88-1.29-1.33-3.15-1.33-5.59c0-2.68,0.46-4.71,1.38-6.08
			c0.92-1.38,2.26-2.06,4-2.06c3.33,0,5,2.59,5,7.77c0,2.57-0.47,4.52-1.41,5.87C1092.1,444.9,1090.79,445.58,1089.09,445.58z
			 M1089.34,431.86c-1.84,0-2.76,2.03-2.76,6.08c0,3.79,0.9,5.69,2.71,5.69c1.78,0,2.67-1.93,2.67-5.78
			C1091.95,433.86,1091.08,431.86,1089.34,431.86z"/>
		<path class="st1" d="M1101.12,445.58c-1.58,0-2.81-0.65-3.7-1.94c-0.88-1.29-1.33-3.15-1.33-5.59c0-2.68,0.46-4.71,1.38-6.08
			c0.92-1.38,2.26-2.06,4-2.06c3.33,0,5,2.59,5,7.77c0,2.57-0.47,4.52-1.41,5.87C1104.12,444.9,1102.81,445.58,1101.12,445.58z
			 M1101.36,431.86c-1.84,0-2.76,2.03-2.76,6.08c0,3.79,0.9,5.69,2.71,5.69c1.78,0,2.67-1.93,2.67-5.78
			C1103.97,433.86,1103.1,431.86,1101.36,431.86z"/>
	</g>
</g>
<line class="st2" x1="857.29" y1="91.71" x2="857.29" y2="480.71"/>
<line class="st2" x1="527.29" y1="91.71" x2="527.29" y2="480.71"/>
<line class="st2" x1="280.29" y1="92.21" x2="280.29" y2="481.21"/>
<line class="st2" x1="725.29" y1="92.71" x2="725.29" y2="481.71"/>
<g>
	<g>
		<path class="st3" d="M23.22,353.02c-1.14,0.59-2.56,0.89-4.26,0.89c-2.2,0-3.96-0.69-5.29-2.08c-1.33-1.39-1.99-3.21-1.99-5.47
			c0-2.42,0.75-4.38,2.24-5.88c1.49-1.5,3.38-2.24,5.65-2.24c1.47,0,2.68,0.21,3.65,0.62v2.5c-1.02-0.61-2.15-0.91-3.38-0.91
			c-1.64,0-2.97,0.53-3.99,1.58c-1.02,1.05-1.53,2.45-1.53,4.21c0,1.67,0.48,3,1.43,3.99s2.2,1.49,3.75,1.49
			c1.43,0,2.67-0.34,3.72-1.02V353.02z"/>
		<path class="st3" d="M35.83,340.63h-4.36v13.03h-2.52v-13.03h-4.35v-2.14h11.22V340.63z"/>
		<path class="st3" d="M44.3,353.91c-2.19,0-3.94-0.71-5.25-2.13c-1.31-1.42-1.97-3.26-1.97-5.53c0-2.44,0.67-4.38,2.01-5.84
			c1.34-1.45,3.16-2.18,5.46-2.18c2.13,0,3.84,0.71,5.14,2.12s1.95,3.25,1.95,5.53c0,2.47-0.67,4.43-2,5.87
			C48.3,353.19,46.52,353.91,44.3,353.91z M44.41,340.45c-1.39,0-2.52,0.52-3.39,1.55c-0.87,1.04-1.31,2.4-1.31,4.09
			c0,1.68,0.42,3.04,1.27,4.07c0.85,1.03,1.95,1.54,3.32,1.54c1.45,0,2.6-0.49,3.44-1.47c0.84-0.98,1.26-2.35,1.26-4.11
			c0-1.81-0.41-3.21-1.22-4.2C46.97,340.94,45.84,340.45,44.41,340.45z"/>
		<path class="st3" d="M67.28,353.66h-2.42v-10.1c0-0.91,0.04-1.55,0.11-1.92H64.9c-0.12,0.32-0.27,0.61-0.44,0.88l-7.28,11.15
			h-2.76v-15.16h2.43v9.64c0,1.11-0.03,1.83-0.08,2.17h0.04c0.14-0.28,0.32-0.59,0.55-0.93l7.02-10.88h2.9V353.66z"/>
		<path class="st3" d="M87.33,353.66h-2.5v-9.81c0-0.8,0.05-1.79,0.15-2.95h-0.04c-0.15,0.66-0.29,1.14-0.41,1.43L80,353.66h-1.73
			l-4.54-11.25c-0.13-0.33-0.26-0.84-0.4-1.51h-0.04c0.06,0.61,0.08,1.6,0.08,2.97v9.79h-2.33v-15.16h3.54l3.99,10.1
			c0.3,0.78,0.5,1.35,0.59,1.73h0.05c0.26-0.8,0.47-1.39,0.63-1.78l4.06-10.06h3.42V353.66z"/>
		<path class="st3" d="M97.31,353.91c-2.19,0-3.94-0.71-5.25-2.13c-1.31-1.42-1.97-3.26-1.97-5.53c0-2.44,0.67-4.38,2.01-5.84
			c1.34-1.45,3.16-2.18,5.46-2.18c2.13,0,3.84,0.71,5.14,2.12s1.95,3.25,1.95,5.53c0,2.47-0.67,4.43-2,5.87
			C101.32,353.19,99.54,353.91,97.31,353.91z M97.42,340.45c-1.39,0-2.52,0.52-3.39,1.55c-0.87,1.04-1.31,2.4-1.31,4.09
			c0,1.68,0.42,3.04,1.27,4.07c0.85,1.03,1.95,1.54,3.32,1.54c1.45,0,2.6-0.49,3.44-1.47c0.84-0.98,1.26-2.35,1.26-4.11
			c0-1.81-0.41-3.21-1.22-4.2C99.98,340.94,98.85,340.45,97.42,340.45z"/>
		<path class="st3" d="M118,353.02c-1.14,0.59-2.56,0.89-4.26,0.89c-2.2,0-3.96-0.69-5.29-2.08c-1.33-1.39-1.99-3.21-1.99-5.47
			c0-2.42,0.75-4.38,2.24-5.88c1.49-1.5,3.38-2.24,5.65-2.24c1.47,0,2.68,0.21,3.65,0.62v2.5c-1.02-0.61-2.15-0.91-3.38-0.91
			c-1.64,0-2.97,0.53-3.99,1.58c-1.02,1.05-1.53,2.45-1.53,4.21c0,1.67,0.48,3,1.43,3.99s2.2,1.49,3.75,1.49
			c1.43,0,2.67-0.34,3.72-1.02V353.02z"/>
		<path class="st3" d="M130.61,340.63h-4.36v13.03h-2.52v-13.03h-4.35v-2.14h11.22V340.63z"/>
		<path class="st3" d="M132.83,353.66v-15.16h2.51v6.1h2.59c1.61,0,2.86,0.37,3.75,1.12s1.34,1.81,1.34,3.19
			c0,1.47-0.47,2.62-1.41,3.47c-0.94,0.85-2.22,1.27-3.84,1.27H132.83z M135.33,346.63v4.97h2.18c0.92,0,1.62-0.22,2.12-0.67
			c0.5-0.44,0.75-1.06,0.75-1.86c0-1.63-0.98-2.44-2.94-2.44H135.33z"/>
		<path class="st3" d="M163.95,353.66h-2.53v-12.91h-7.19v12.91h-2.52v-15.16h12.23V353.66z"/>
		<path class="st3" d="M173.91,353.91c-2.19,0-3.94-0.71-5.25-2.13c-1.31-1.42-1.97-3.26-1.97-5.53c0-2.44,0.67-4.38,2.01-5.84
			c1.34-1.45,3.16-2.18,5.46-2.18c2.13,0,3.84,0.71,5.14,2.12s1.95,3.25,1.95,5.53c0,2.47-0.67,4.43-2,5.87
			C177.92,353.19,176.14,353.91,173.91,353.91z M174.03,340.45c-1.39,0-2.52,0.52-3.39,1.55c-0.87,1.04-1.31,2.4-1.31,4.09
			c0,1.68,0.42,3.04,1.27,4.07c0.85,1.03,1.95,1.54,3.32,1.54c1.45,0,2.6-0.49,3.44-1.47c0.84-0.98,1.26-2.35,1.26-4.11
			c0-1.81-0.41-3.21-1.22-4.2C176.58,340.94,175.46,340.45,174.03,340.45z"/>
		<path class="st3" d="M197.22,357.75h-2.25v-4.09h-10.3v4.09h-2.24v-6.23h1.28c0.95-1.78,1.76-3.87,2.42-6.25
			c0.66-2.38,1.04-4.64,1.12-6.78h7.88v13.03h2.09V357.75z M192.61,351.52v-10.86h-3.28c-0.1,1.58-0.44,3.43-1.03,5.55
			c-0.59,2.12-1.24,3.89-1.96,5.31H192.61z"/>
		<path class="st3" d="M213.03,357.75h-2.25v-4.09h-10.3v4.09h-2.24v-6.23h1.28c0.95-1.78,1.76-3.87,2.42-6.25
			c0.66-2.38,1.04-4.64,1.12-6.78h7.88v13.03h2.09V357.75z M208.42,351.52v-10.86h-3.28c-0.1,1.58-0.44,3.43-1.03,5.55
			c-0.59,2.12-1.24,3.89-1.96,5.31H208.42z"/>
		<path class="st3" d="M224.16,353.66h-8.51v-15.16h8.17v2.14h-5.66v4.29h5.21v2.12h-5.21v4.48h6V353.66z"/>
		<path class="st3" d="M229.36,348.16v5.5h-2.51v-15.16h4.6c1.74,0,3.09,0.41,4.05,1.22c0.96,0.81,1.44,1.95,1.44,3.43
			s-0.5,2.68-1.5,3.62c-1,0.94-2.35,1.41-4.06,1.41H229.36z M229.36,340.56v5.54h1.63c1.08,0,1.9-0.25,2.46-0.75
			c0.56-0.5,0.85-1.21,0.85-2.12c0-1.78-1.04-2.68-3.11-2.68H229.36z"/>
		<path class="st3" d="M257.8,353.66h-3.23l-5.33-6.86c-0.15-0.2-0.26-0.37-0.35-0.53h-0.04v7.39h-2.43v-7.39h-0.04
			c-0.09,0.18-0.21,0.35-0.35,0.53l-5.33,6.86h-3.24l6.43-7.89l-5.97-7.28h3.04l5.02,6.47c0.16,0.2,0.3,0.4,0.4,0.59h0.04v-7.06
			h2.43v7.06h0.04c0.09-0.18,0.23-0.37,0.4-0.59l5.02-6.47h3.02l-5.96,7.28L257.8,353.66z"/>
		<path class="st3" d="M270.99,353.66h-3.28l-5.28-6.94c-0.2-0.26-0.32-0.44-0.36-0.53h-0.04v7.47h-2.52v-15.16h2.52v7.13h0.04
			c0.08-0.15,0.2-0.33,0.36-0.52l5.09-6.61h3.01l-5.95,7.28L270.99,353.66z"/>
		<path class="st3" d="M285.6,353.66h-2.42v-10.1c0-0.91,0.04-1.55,0.11-1.92h-0.06c-0.12,0.32-0.27,0.61-0.44,0.88l-7.28,11.15
			h-2.76v-15.16h2.43v9.64c0,1.11-0.03,1.83-0.08,2.17h0.04c0.14-0.28,0.32-0.59,0.55-0.93l7.02-10.88h2.9V353.66z"/>
		<path class="st3" d="M299.95,338.15v15.5h-2.45v-12.5c-0.44,0.32-0.92,0.59-1.43,0.81c-0.51,0.22-1.09,0.42-1.75,0.59v-2.09
			c0.41-0.13,0.8-0.27,1.18-0.42c0.38-0.15,0.76-0.31,1.13-0.5s0.74-0.39,1.12-0.61c0.38-0.23,0.77-0.48,1.17-0.77H299.95z"/>
		<path class="st3" d="M312.49,348.16v5.5h-2.51v-15.16h4.6c1.74,0,3.09,0.41,4.05,1.22c0.96,0.81,1.44,1.95,1.44,3.43
			s-0.5,2.68-1.5,3.62c-1,0.94-2.35,1.41-4.06,1.41H312.49z M312.49,340.56v5.54h1.63c1.08,0,1.9-0.25,2.46-0.75
			c0.56-0.5,0.85-1.21,0.85-2.12c0-1.78-1.04-2.68-3.11-2.68H312.49z"/>
		<path class="st3" d="M335.1,353.66h-2.76l-1.36-3.86h-5.96l-1.31,3.86h-2.75l5.68-15.16h2.83L335.1,353.66z M330.31,347.74
			l-2.1-6.05c-0.06-0.2-0.13-0.51-0.2-0.95h-0.04c-0.06,0.4-0.13,0.72-0.21,0.95l-2.08,6.05H330.31z"/>
		<path class="st3" d="M337.18,353.66v-15.16h8.85v2.15h-6.33v4.15h2.9c1.55,0,2.76,0.37,3.62,1.1s1.3,1.77,1.3,3.12
			c0,1.44-0.46,2.57-1.38,3.41c-0.92,0.83-2.17,1.25-3.76,1.25H337.18z M339.7,346.78v4.87h2.27c0.92,0,1.64-0.22,2.14-0.66
			c0.5-0.44,0.75-1.05,0.75-1.83c0-1.59-0.95-2.38-2.84-2.38H339.7z"/>
		<path class="st3" d="M356.5,353.91c-2.19,0-3.94-0.71-5.25-2.13c-1.31-1.42-1.97-3.26-1.97-5.53c0-2.44,0.67-4.38,2.01-5.84
			c1.34-1.45,3.16-2.18,5.46-2.18c2.13,0,3.84,0.71,5.14,2.12s1.95,3.25,1.95,5.53c0,2.47-0.67,4.43-2,5.87
			C360.51,353.19,358.73,353.91,356.5,353.91z M356.62,340.45c-1.39,0-2.52,0.52-3.39,1.55c-0.87,1.04-1.31,2.4-1.31,4.09
			c0,1.68,0.42,3.04,1.27,4.07c0.85,1.03,1.95,1.54,3.32,1.54c1.45,0,2.6-0.49,3.44-1.47c0.84-0.98,1.26-2.35,1.26-4.11
			c0-1.81-0.41-3.21-1.22-4.2C359.17,340.94,358.05,340.45,356.62,340.45z"/>
		<path class="st3" d="M377.72,353.66h-2.52v-6.46c-1.59,0.82-3.06,1.23-4.42,1.23c-1.4,0-2.49-0.35-3.25-1.06
			c-0.77-0.71-1.15-1.7-1.15-2.99v-5.88h2.51v5.42c0,1.57,0.8,2.36,2.41,2.36c1.14,0,2.44-0.37,3.9-1.1v-6.68h2.52V353.66z"/>
		<path class="st3" d="M390.09,353.66h-8.51v-15.16h8.17v2.14h-5.66v4.29h5.21v2.12h-5.21v4.48h6V353.66z"/>
		<path class="st3" d="M401.18,340.67h-5.88v12.99h-2.52v-15.16h8.4V340.67z"/>
		<path class="st3" d="M409.64,353.91c-2.19,0-3.94-0.71-5.25-2.13c-1.31-1.42-1.97-3.26-1.97-5.53c0-2.44,0.67-4.38,2.01-5.84
			c1.34-1.45,3.16-2.18,5.46-2.18c2.13,0,3.84,0.71,5.14,2.12s1.95,3.25,1.95,5.53c0,2.47-0.67,4.43-2,5.87
			C413.65,353.19,411.87,353.91,409.64,353.91z M409.76,340.45c-1.39,0-2.52,0.52-3.39,1.55c-0.87,1.04-1.31,2.4-1.31,4.09
			c0,1.68,0.42,3.04,1.27,4.07c0.85,1.03,1.95,1.54,3.32,1.54c1.45,0,2.6-0.49,3.44-1.47c0.84-0.98,1.26-2.35,1.26-4.11
			c0-1.81-0.41-3.21-1.22-4.2C412.31,340.94,411.19,340.45,409.76,340.45z"/>
		<path class="st3" d="M442,353.66h-2.5v-9.81c0-0.8,0.05-1.79,0.15-2.95h-0.04c-0.15,0.66-0.29,1.14-0.41,1.43l-4.53,11.34h-1.73
			l-4.54-11.25c-0.13-0.33-0.26-0.84-0.4-1.51h-0.04c0.06,0.61,0.08,1.6,0.08,2.97v9.79h-2.33v-15.16h3.54l3.99,10.1
			c0.3,0.78,0.5,1.35,0.59,1.73h0.05c0.26-0.8,0.47-1.39,0.63-1.78l4.06-10.06H442V353.66z"/>
		<path class="st3" d="M454.24,353.66h-8.51v-15.16h8.17v2.14h-5.66v4.29h5.21v2.12h-5.21v4.48h6V353.66z"/>
		<path class="st3" d="M467.52,353.02c-1.14,0.59-2.56,0.89-4.26,0.89c-2.2,0-3.96-0.69-5.29-2.08c-1.33-1.39-1.99-3.21-1.99-5.47
			c0-2.42,0.75-4.38,2.24-5.88c1.49-1.5,3.38-2.24,5.65-2.24c1.47,0,2.68,0.21,3.65,0.62v2.5c-1.02-0.61-2.15-0.91-3.38-0.91
			c-1.64,0-2.97,0.53-3.99,1.58c-1.02,1.05-1.53,2.45-1.53,4.21c0,1.67,0.48,3,1.43,3.99s2.2,1.49,3.75,1.49
			c1.43,0,2.67-0.34,3.72-1.02V353.02z"/>
		<path class="st3" d="M480.12,340.63h-4.36v13.03h-2.52v-13.03h-4.35v-2.14h11.22V340.63z"/>
		<path class="st3" d="M494.8,353.66h-2.76l-1.36-3.86h-5.96l-1.31,3.86h-2.75l5.68-15.16h2.83L494.8,353.66z M490.01,347.74
			l-2.1-6.05c-0.06-0.2-0.13-0.51-0.2-0.95h-0.04c-0.06,0.4-0.13,0.72-0.21,0.95l-2.08,6.05H490.01z"/>
		<path class="st3" d="M498.9,351.13l-1.64,5.28h-1.84l1.16-5.28H498.9z"/>
		<path class="st3" d="M510.57,348.16v5.5h-2.51v-15.16h4.6c1.74,0,3.09,0.41,4.05,1.22c0.96,0.81,1.44,1.95,1.44,3.43
			s-0.5,2.68-1.5,3.62c-1,0.94-2.35,1.41-4.06,1.41H510.57z M510.57,340.56v5.54h1.63c1.08,0,1.9-0.25,2.46-0.75
			c0.56-0.5,0.85-1.21,0.85-2.12c0-1.78-1.04-2.68-3.11-2.68H510.57z"/>
		<path class="st3" d="M531.7,338.49l-4.72,10.5c-0.87,1.91-1.72,3.21-2.53,3.9s-1.7,1.03-2.67,1.03c-0.77,0-1.41-0.11-1.92-0.33
			v-2.4c0.61,0.37,1.2,0.55,1.77,0.55c0.5,0,0.96-0.19,1.38-0.57s0.87-1.05,1.36-2.01l-5.07-10.67h2.87l3.13,7.19
			c0.06,0.15,0.19,0.51,0.37,1.1h0.02c0.02-0.07,0.15-0.44,0.4-1.1l2.95-7.19H531.7z"/>
		<path class="st3" d="M533.47,353.66v-15.16h8.85v2.15h-6.33v4.15h2.9c1.55,0,2.76,0.37,3.62,1.1s1.3,1.77,1.3,3.12
			c0,1.44-0.46,2.57-1.38,3.41c-0.92,0.83-2.17,1.25-3.76,1.25H533.47z M535.99,346.78v4.87h2.27c0.92,0,1.64-0.22,2.14-0.66
			c0.5-0.44,0.75-1.05,0.75-1.83c0-1.59-0.95-2.38-2.84-2.38H535.99z"/>
		<path class="st3" d="M553.84,338.49l-7.33,17.68h-2.23l7.3-17.68H553.84z"/>
		<path class="st3" d="M571.78,353.66h-2.5v-9.81c0-0.8,0.05-1.79,0.15-2.95h-0.04c-0.15,0.66-0.29,1.14-0.41,1.43l-4.53,11.34
			h-1.73l-4.54-11.25c-0.13-0.33-0.26-0.84-0.4-1.51h-0.04c0.06,0.61,0.08,1.6,0.08,2.97v9.79h-2.33v-15.16h3.54l3.99,10.1
			c0.3,0.78,0.5,1.35,0.59,1.73h0.05c0.26-0.8,0.47-1.39,0.63-1.78l4.06-10.06h3.42V353.66z"/>
		<path class="st3" d="M584.03,353.66h-8.51v-15.16h8.17v2.14h-5.66v4.29h5.21v2.12h-5.21v4.48h6V353.66z"/>
		<path class="st3" d="M597.3,353.02c-1.14,0.59-2.56,0.89-4.26,0.89c-2.2,0-3.96-0.69-5.29-2.08c-1.33-1.39-1.99-3.21-1.99-5.47
			c0-2.42,0.75-4.38,2.24-5.88c1.49-1.5,3.38-2.24,5.65-2.24c1.47,0,2.68,0.21,3.65,0.62v2.5c-1.02-0.61-2.15-0.91-3.38-0.91
			c-1.64,0-2.97,0.53-3.99,1.58c-1.02,1.05-1.53,2.45-1.53,4.21c0,1.67,0.48,3,1.43,3.99s2.2,1.49,3.75,1.49
			c1.43,0,2.67-0.34,3.72-1.02V353.02z"/>
		<path class="st3" d="M609.69,353.66h-2.52v-6.2h-1.63c-0.42,0-0.78,0.12-1.09,0.35c-0.31,0.23-0.65,0.75-1.01,1.55l-1.8,4.29
			h-2.94l2.23-4.82c0.18-0.37,0.45-0.77,0.81-1.18c0.36-0.41,0.78-0.71,1.26-0.88v-0.04c-1.04-0.22-1.86-0.68-2.44-1.38
			c-0.58-0.7-0.87-1.55-0.87-2.55c0-1.3,0.48-2.34,1.45-3.12c0.97-0.79,2.23-1.18,3.81-1.18h4.74V353.66z M607.18,345.43v-4.87h-2.1
			c-0.86,0-1.53,0.21-2,0.62c-0.47,0.42-0.71,1-0.71,1.77c0,0.77,0.25,1.37,0.76,1.82c0.5,0.44,1.18,0.67,2.04,0.67H607.18z"/>
		<path class="st3" d="M627.71,357.76h-2.25v-4.1h-12.01v-15.16h2.52v12.96h7.14v-12.96h2.53v12.96h2.08V357.76z"/>
	</g>
</g>
<line class="st2" x1="-0.71" y1="92.21" x2="1323.29" y2="92.21"/>
</svg>
