<?xml version="1.0" encoding="utf-8"?>
<!-- Generator: Adobe Illustrator 24.3.0, SVG Export Plug-In . SVG Version: 6.00 Build 0)  -->
<svg version="1.1" id="Слой_1" xmlns="http://www.w3.org/2000/svg" xmlns:xlink="http://www.w3.org/1999/xlink" x="0px" y="0px"
	 viewBox="0 0 1877 536" style="enable-background:new 0 0 1877 536;" xml:space="preserve">
<style type="text/css">
	.st0{fill:#CE1717;}
	.st1{fill:#FFFFFF;}
</style>
<rect x="1341.91" y="0.49" class="st0" width="535.09" height="535.09"/>
<g>
	<path class="st1" d="M1517.49,414.64h-51.21V114.91h51.21V414.64z"/>
	<path class="st1" d="M1783.57,157.13h-86.12v257.51h-49.75V157.13h-85.91v-42.22h221.77V157.13z"/>
</g>
<g>
	<path class="st0" d="M228.46,405.25c-22.57,11.71-50.65,17.56-84.23,17.56c-43.48,0-78.31-13.72-104.51-41.18
		c-26.2-27.45-39.3-63.47-39.3-108.06c0-47.93,14.74-86.67,44.21-116.21c29.47-29.54,66.71-44.31,111.72-44.31
		c28.98,0,53.02,4.11,72.11,12.33v49.33c-20.21-11.98-42.5-17.98-66.89-17.98c-32.47,0-58.77,10.38-78.9,31.14
		c-20.14,20.76-30.2,48.49-30.2,83.19c0,33.02,9.41,59.33,28.22,78.9c18.81,19.58,43.54,29.37,74.2,29.37
		c28.29,0,52.81-6.69,73.57-20.07V405.25z"/>
	<path class="st0" d="M408.84,422.81c-43.2,0-77.79-14-103.78-42.01c-25.99-28.01-38.98-64.45-38.98-109.32
		c0-48.21,13.24-86.67,39.71-115.38c26.47-28.7,62.42-43.06,107.85-43.06c42.08,0,75.98,13.94,101.69,41.8
		c25.71,27.87,38.56,64.31,38.56,109.32c0,48.91-13.17,87.58-39.5,116.01C488.06,408.6,452.88,422.81,408.84,422.81z M411.14,156.73
		c-27.45,0-49.78,10.24-66.99,30.73c-17.21,20.48-25.81,47.45-25.81,80.89c0,33.31,8.36,60.13,25.08,80.47
		c16.72,20.35,38.6,30.52,65.63,30.52c28.7,0,51.35-9.68,67.93-29.05c16.58-19.37,24.87-46.47,24.87-81.31
		c0-35.81-8.05-63.47-24.14-82.98C461.62,166.48,439.43,156.73,411.14,156.73z"/>
	<path class="st0" d="M723,285.07h-64.59v132.73h-49.54V118.06h49.54v124.16h65.84c4.18-40.55,18.57-72.22,43.16-95
		c24.59-22.78,56.61-34.17,96.04-34.17c40.97,0,73.71,13.83,98.24,41.49c24.52,27.66,36.79,64.48,36.79,110.47
		c0,49.19-12.54,87.79-37.62,115.8c-25.08,28.01-59.22,42.01-102.42,42.01c-40.27,0-72.63-12.57-97.09-37.73
		C736.9,359.93,724.11,326.59,723,285.07z M862.41,156.73c-27.45,0-48.95,9.82-64.48,29.47c-15.54,19.65-23.31,46.68-23.31,81.1
		c0,35.53,7.38,63.09,22.16,82.67c14.77,19.58,35.53,29.37,62.29,29.37c27.73,0,49.19-9.58,64.38-28.74
		c15.19-19.16,22.78-46.23,22.78-81.2c0-36.37-7.32-64.24-21.95-83.61C909.65,166.42,889.03,156.73,862.41,156.73z"/>
	<path class="st0" d="M1034.44,406.09v-47.66c23.55,16.72,50.3,25.08,80.26,25.08c19.65,0,35.29-4.56,46.92-13.69
		c11.63-9.12,17.45-21.35,17.45-36.68c0-33.44-23.62-50.17-70.86-50.17h-34.49V244.1h32.4c20.07,0,35.6-4.18,46.61-12.54
		c11.01-8.36,16.51-20.13,16.51-35.32c0-13.1-4.67-23.58-14-31.46c-9.34-7.87-22.16-11.81-38.46-11.81
		c-24.8,0-48.98,7.52-72.53,22.57v-44.31c23.13-12.12,49.81-18.18,80.05-18.18c30.1,0,53.79,6.86,71.07,20.59
		c17.28,13.73,25.92,31.74,25.92,54.03c0,38.6-19.3,62.99-57.9,73.16v0.84c20.62,2.37,37.03,10.03,49.22,22.99
		c12.19,12.96,18.29,28.98,18.29,48.07c0,27.45-10.24,49.33-30.73,65.63c-20.48,16.3-48.49,24.46-84.03,24.46
		C1080.91,422.81,1053.67,417.24,1034.44,406.09z"/>
</g>
</svg>
