<?xml version="1.0" encoding="utf-8"?>
<!-- Generator: Adobe Illustrator 24.3.0, SVG Export Plug-In . SVG Version: 6.00 Build 0)  -->
<svg version="1.1" id="Слой_1" xmlns="http://www.w3.org/2000/svg" xmlns:xlink="http://www.w3.org/1999/xlink" x="0px" y="0px"
	 viewBox="0 0 22.18 16.35" style="enable-background:new 0 0 22.18 16.35;" xml:space="preserve">
<style type="text/css">
	.st0{display:none;fill:#CF1A1B;}
	.st1{display:none;fill:#9C9B9B;}
	.st2{display:none;fill:#FFFFFF;}
	.st3{fill:#CE1717;}
</style>
<path class="st0" d="M9.83-2.06C9.81-2.1,9.78-2.15,9.74-2.21C9.61-2.37,9.48-2.48,9.4-2.54C9.08-2.79,8.73-2.9,8.69-2.91
	C8.44-2.99,8.25-3,7.89-3C7.5-3.02,7.2-2.99,6.9-2.96C6.67-2.94,6.46-2.92,6.19-2.87c-0.6,0.11-1.06,0.29-1.28,0.38
	C4.6-2.36,4.2-2.2,3.78-1.87C3.05-1.32,2.68-0.66,2.55-0.4C2.14,0.39,2.1,1.12,2.07,1.58c-0.03,0.51,0,1.09,0,1.09
	c0.01,0.19,0.02,0.27,0.05,0.71c0.03,0.41,0.04,0.69,0.05,0.8c0.05,0.8,0.15,1.63,0.19,1.89C2.41,6.46,2.5,7.16,2.69,8.06
	c0.16,0.77,0.3,1.46,0.61,2.36c0.33,0.96,0.69,1.68,0.9,2.08c0.36,0.68,0.66,1.12,1.18,1.89c0.4,0.59,0.96,1.41,1.8,2.41
	c0.57,0.69,1.09,1.3,1.89,2.03c0.48,0.43,0.97,0.87,1.7,1.32c0.68,0.42,1.38,0.85,2.41,1.04c0.36,0.07,1.28,0.23,2.32-0.05
	c0.26-0.07,0.53-0.17,0.99-0.33c0.3-0.11,0.79-0.28,1.32-0.52c0.98-0.43,1.46-0.65,1.75-0.99c0.09-0.11,0.69-0.85,0.52-1.75
	c-0.04-0.22-0.12-0.4-0.19-0.52c-1.2-0.93-2.4-1.86-3.59-2.79c-0.08-0.07-0.24-0.19-0.47-0.24c-0.35-0.07-0.62,0.05-0.71,0.09
	c-0.58,0.39-1.17,0.79-1.75,1.18c-0.12,0.07-0.3,0.16-0.52,0.24c-0.15,0.05-0.34,0.12-0.57,0.14c-0.08,0.01-0.43,0.04-0.8-0.09
	c-0.65-0.23-0.96-0.8-1.04-0.95c-1.34-2.48-2.68-4.99-4.02-7.5C6.36,6.96,6.28,6.73,6.23,6.45c-0.04-0.23-0.09-0.55,0-0.95
	C6.38,4.88,6.78,4.52,6.9,4.42C7.15,4.2,7.4,4.09,7.51,4.04c0.38-0.15,0.71-0.15,0.9-0.14c0.18-0.02,0.43-0.08,0.71-0.24
	c0.46-0.26,0.7-0.62,0.8-0.8C9.89,1.22,9.86-0.42,9.83-2.06z"/>
<g>
	<rect x="-0.91" y="0.29" class="st1" width="24" height="17.61"/>
	<path class="st2" d="M9.1,11.3l-9.55-9.55C-0.73,2.21-0.9,2.74-0.9,3.31v11.7c0,1.65,1.35,3.01,3.01,3.01h17.98
		c1.65,0,3.01-1.35,3.01-3.01V3.3c0-0.72-0.27-1.37-0.69-1.89l-9.88,9.88C11.58,12.24,10.04,12.24,9.1,11.3z"/>
	<path class="st2" d="M20.08-0.88H2.1c-1.08,0-2.03,0.59-2.56,1.45l9.56,9.55c0.94,0.94,2.48,0.94,3.42,0l9.88-9.88
		C21.85-0.44,21.02-0.88,20.08-0.88z"/>
</g>
<g>
	<path class="st3" d="M11.09,8.91L21.2,0.02C21.16,0.02,21.11,0,21.07,0H1.12C1.07,0,1.03,0.02,0.98,0.02L11.09,8.91z"/>
	<path class="st3" d="M11.09,11.1L0.12,1.47C0.05,1.6,0,1.75,0,1.9v13.48c0,0.54,0.5,0.98,1.12,0.98h19.95
		c0.62,0,1.12-0.44,1.12-0.98V1.9c0-0.16-0.05-0.3-0.12-0.43L11.09,11.1z"/>
</g>
</svg>
