<?xml version="1.0" encoding="utf-8"?>
<!-- Generator: Adobe Illustrator 24.3.0, SVG Export Plug-In . SVG Version: 6.00 Build 0)  -->
<svg version="1.1" id="Слой_1" xmlns="http://www.w3.org/2000/svg" xmlns:xlink="http://www.w3.org/1999/xlink" x="0px" y="0px"
	 viewBox="0 0 18.07 24.22" style="enable-background:new 0 0 18.07 24.22;" xml:space="preserve">
<style type="text/css">
	.st0{fill:#CF1A1B;}
</style>
<path class="st0" d="M7.77,0.95C7.75,0.91,7.72,0.86,7.68,0.81C7.55,0.64,7.42,0.54,7.34,0.48C7.02,0.22,6.67,0.11,6.63,0.1
	C6.38,0.02,6.19,0.01,5.83,0C5.44-0.01,5.14,0.02,4.84,0.05C4.61,0.07,4.4,0.09,4.13,0.14c-0.6,0.11-1.05,0.29-1.28,0.38
	C2.54,0.65,2.14,0.82,1.72,1.14C0.99,1.69,0.62,2.34,0.49,2.6c-0.41,0.8-0.45,1.53-0.47,1.99c-0.03,0.51,0,1.09,0,1.09
	c0.01,0.19,0.02,0.27,0.05,0.71C0.09,6.8,0.1,7.07,0.11,7.19c0.05,0.8,0.15,1.63,0.19,1.89c0.05,0.39,0.14,1.09,0.33,1.99
	c0.16,0.77,0.3,1.46,0.61,2.37c0.33,0.96,0.69,1.68,0.9,2.08c0.36,0.68,0.66,1.12,1.18,1.89c0.4,0.59,0.96,1.41,1.8,2.41
	c0.57,0.69,1.09,1.3,1.89,2.03c0.48,0.43,0.97,0.87,1.7,1.32c0.68,0.42,1.38,0.85,2.41,1.04c0.36,0.07,1.28,0.23,2.32-0.05
	c0.26-0.07,0.53-0.17,0.99-0.33c0.3-0.11,0.79-0.28,1.32-0.52c0.98-0.43,1.46-0.65,1.75-0.99c0.09-0.11,0.69-0.85,0.52-1.75
	c-0.04-0.22-0.12-0.4-0.19-0.52c-1.2-0.93-2.4-1.86-3.59-2.79c-0.08-0.07-0.24-0.19-0.47-0.24c-0.35-0.07-0.62,0.05-0.71,0.09
	c-0.58,0.39-1.17,0.79-1.75,1.18c-0.12,0.07-0.3,0.16-0.52,0.24c-0.15,0.05-0.34,0.12-0.57,0.14c-0.08,0.01-0.43,0.04-0.8-0.09
	c-0.65-0.23-0.96-0.8-1.04-0.95c-1.34-2.51-2.68-5.01-4.02-7.52C4.3,9.97,4.22,9.74,4.18,9.46c-0.04-0.23-0.09-0.55,0-0.95
	C4.32,7.9,4.73,7.53,4.84,7.43C5.09,7.2,5.34,7.1,5.45,7.05C5.83,6.9,6.16,6.9,6.35,6.91c0.18-0.02,0.43-0.08,0.71-0.24
	c0.46-0.26,0.7-0.62,0.8-0.8C7.83,4.23,7.8,2.59,7.77,0.95z"/>
</svg>
